<?xml version="1.0" encoding="UTF-8" standalone="no"?>
<!-- Created with Inkscape (http://www.inkscape.org/) -->

<svg
   xmlns:dc="http://purl.org/dc/elements/1.1/"
   xmlns:cc="http://creativecommons.org/ns#"
   xmlns:rdf="http://www.w3.org/1999/02/22-rdf-syntax-ns#"
   xmlns:svg="http://www.w3.org/2000/svg"
   xmlns="http://www.w3.org/2000/svg"
   xmlns:sodipodi="http://sodipodi.sourceforge.net/DTD/sodipodi-0.dtd"
   xmlns:inkscape="http://www.inkscape.org/namespaces/inkscape"
   id="svg3352"
   height="19.716145mm"
   width="65.201172mm"
   version="1.1"
   viewBox="0 0 231.02934 69.86173"
   inkscape:version="0.91 r13725"
   sodipodi:docname="escudo_dgae_completowsg.svg">
  <defs
     id="defs4193" />
  <sodipodi:namedview
     pagecolor="#00ffff"
     bordercolor="#666666"
     borderopacity="1"
     objecttolerance="10"
     gridtolerance="10"
     guidetolerance="10"
     inkscape:pageopacity="0"
     inkscape:pageshadow="2"
     inkscape:window-width="1920"
     inkscape:window-height="1057"
     id="namedview4191"
     showgrid="false"
     showborder="false"
     showguides="true"
     inkscape:guide-bbox="true"
     inkscape:zoom="2.6218227"
     inkscape:cx="116.62261"
     inkscape:cy="39.861115"
     inkscape:window-x="1912"
     inkscape:window-y="-8"
     inkscape:window-maximized="1"
     inkscape:current-layer="svg3352"
     fit-margin-top="0"
     fit-margin-left="0"
     fit-margin-right="0"
     fit-margin-bottom="0">
    <sodipodi:guide
       position="-1.1457453,-43.53712"
       orientation="1,0"
       id="guide4797" />
    <sodipodi:guide
       position="98.022573,-63.371043"
       orientation="1,0"
       id="guide4799" />
  </sodipodi:namedview>
  <metadata
     id="metadata3357">
    <rdf:RDF>
      <cc:Work
         rdf:about="">
        <dc:format>image/svg+xml</dc:format>
        <dc:type
           rdf:resource="http://purl.org/dc/dcmitype/StillImage" />
        <dc:title></dc:title>
      </cc:Work>
    </rdf:RDF>
  </metadata>
  <g
     id="layer1"
     transform="translate(-52.476495,-450.93017)"
     style="fill:#ffffff">
    <g
       id="text3360"
       transform="matrix(0.375,0,0,0.375,32.797,319.33)">
      <path
         id="path4230"
         d="m 62.158,352.51 14.137,0 q 13.668,0 20.311,3.4064 6.6425,3.3638 10.943,10.986 4.3006,7.6218 4.3006,17.799 0,7.2386 -2.4271,13.328 -2.3845,6.0464 -6.6425,10.049 -4.2154,4.0025 -9.1547,5.5354 -4.9393,1.5329 -17.117,1.5329 l -14.35,0 0,-62.635 z m 11.88,11.497 0,39.472 5.5354,0 q 8.1754,0 11.837,-1.8735 3.7045,-1.8735 6.0464,-6.3019 2.3419,-4.4283 2.3419,-10.901 0,-9.9638 -5.578,-15.457 -5.0245,-4.9393 -16.138,-4.9393 l -4.0451,0 z"
         inkscape:connector-curvature="0" />
      <path
         id="path4232"
         d="m 183.45,362.73 -8.3883,8.3031 q -7.9625,-8.4309 -18.565,-8.4309 -9.2399,0 -15.499,6.1315 -6.2167,6.1316 -6.2167,14.903 0,9.0696 6.4722,15.371 6.4722,6.3019 15.968,6.3019 6.1741,0 10.39,-2.5974 4.258,-2.5974 6.8554,-8.1328 l -18.139,0 0,-11.199 31.509,0 0.0852,2.64 q 0,8.218 -4.258,15.584 -4.258,7.3664 -11.028,11.241 -6.7702,3.8748 -15.882,3.8748 -9.7509,0 -17.415,-4.2154 -7.6219,-4.258 -12.093,-12.093 -4.4283,-7.8348 -4.4283,-16.904 0,-12.433 8.218,-21.631 9.7509,-10.943 25.378,-10.943 8.1754,0 15.286,3.0232 6.0038,2.5548 11.752,8.7715 z"
         inkscape:connector-curvature="0" />
      <path
         id="path4234"
         d="m 220.3,352.51 12.093,0 24.1,62.635 -12.391,0 -4.8967,-12.902 -25.548,0 -5.1096,12.902 -12.391,0 24.143,-62.635 z m 6.1316,16.606 -8.3457,21.503 16.649,0 -8.3031,-21.503 z"
         inkscape:connector-curvature="0" />
      <path
         id="path4236"
         d="m 268.19,352.51 34.192,0 0,11.667 -22.355,0 0,11.326 22.355,0 0,11.454 -22.355,0 0,16.479 22.355,0 0,11.71 -34.192,0 0,-62.635 z"
         inkscape:connector-curvature="0" />
      <path
         id="path4238"
         d="m 55.614,439.71 11.965,0 0,40.536 q 0,5.2374 0.89418,7.409 0.93676,2.1716 3.0232,3.4916 2.129,1.2774 5.1096,1.2774 3.1509,0 5.4077,-1.4477 2.2993,-1.4477 3.1509,-3.6619 0.89418,-2.2568 0.89418,-8.5586 l 0,-39.046 11.965,0 0,37.343 q 0,9.4528 -1.0645,13.115 -1.0645,3.6619 -4.0877,7.0683 -2.9806,3.4064 -6.898,5.067 -3.9174,1.618 -9.1122,1.618 -6.8128,0 -11.88,-3.1084 -5.0245,-3.1509 -7.1961,-7.8348 -2.1716,-4.7264 -2.1716,-15.925 l 0,-37.343 z"
         inkscape:connector-curvature="0" />
      <path
         id="path4240"
         d="m 111.95,439.71 11.411,0 26.868,41.218 0,-41.218 11.922,0 0,62.635 -11.454,0 -26.826,-41.09 0,41.09 -11.922,0 0,-62.635 z"
         inkscape:connector-curvature="0" />
      <path
         id="path4242"
         d="m 195.53,439.71 12.093,0 24.1,62.635 -12.391,0 -4.8967,-12.902 -25.548,0 -5.1096,12.902 -12.391,0 24.143,-62.635 z m 6.1315,16.606 -8.3457,21.503 16.649,0 -8.3031,-21.503 z"
         inkscape:connector-curvature="0" />
      <path
         id="path4244"
         d="m 247.05,439.71 11.667,0 14.477,43.687 14.69,-43.687 11.497,0 10.56,62.635 -11.497,0 -6.7277,-39.557 -13.328,39.557 -10.517,0 -13.157,-39.557 -6.8554,39.557 -11.624,0 10.815,-62.635 z"
         inkscape:connector-curvature="0" />
    </g>
    <path
       id="rect3366"
       d="m 52.475,478.09 97.943,0 0,2.4283 -97.943,0 z"
       inkscape:connector-curvature="0" />
    <g
       id="text3368"
       transform="matrix(0.375,0,0,0.375,32.797,319.33)">
      <path
         id="path4151"
         d="m 327.91,397.3 4.4177,0 q 4.2713,0 6.3471,1.0645 2.0758,1.0512 3.4197,3.433 1.3439,2.3818 1.3439,5.562 0,2.2621 -0.75846,4.1649 -0.74515,1.8895 -2.0758,3.1403 -1.3173,1.2508 -2.8608,1.7298 -1.5435,0.47903 -5.3491,0.47903 l -4.4842,0 0,-19.574 z m 3.7125,3.5927 0,12.335 1.7298,0 q 2.5548,0 3.6992,-0.58548 1.1576,-0.58547 1.8895,-1.9693 0.73185,-1.3839 0.73185,-3.4064 0,-3.1137 -1.7431,-4.8302 -1.5702,-1.5435 -5.0431,-1.5435 l -1.2641,0 z"
         inkscape:connector-curvature="0" />
      <path
         id="path4153"
         d="m 348.03,396.43 q 0.95805,0 1.6367,0.69193 0.69193,0.69193 0.69193,1.6766 0,0.97136 -0.67862,1.6633 -0.67862,0.67862 -1.6234,0.67862 -0.97136,0 -1.6633,-0.69193 -0.67862,-0.70523 -0.67862,-1.7032 0,-0.95805 0.67862,-1.6367 0.67862,-0.67863 1.6367,-0.67863 z m -1.823,5.9612 3.6459,0 0,14.477 -3.6459,0 0,-14.477 z"
         inkscape:connector-curvature="0" />
      <path
         id="path4155"
         d="m 352.3,402.39 3.1137,0 0,1.823 q 0.50564,-1.0778 1.3439,-1.6367 0.8383,-0.55886 1.8363,-0.55886 0.70523,0 1.477,0.37257 l -1.131,3.127 q -0.6387,-0.31935 -1.0512,-0.31935 -0.83829,0 -1.4238,1.0379 -0.57217,1.0379 -0.57217,4.0717 l 0.0133,0.70523 0,5.8548 -3.606,0 0,-14.477 z"
         inkscape:connector-curvature="0" />
      <path
         id="path4157"
         d="m 376.38,410.68 -11.67,0 q 0.25282,1.5435 1.3439,2.4617 1.1044,0.90483 2.8076,0.90483 2.0359,0 3.4996,-1.4238 l 3.0605,1.4371 q -1.1444,1.6234 -2.7411,2.4084 -1.5968,0.77177 -3.7923,0.77177 -3.4064,0 -5.5487,-2.1423 -2.1423,-2.1556 -2.1423,-5.389 0,-3.3133 2.129,-5.4955 2.1423,-2.1955 5.3624,-2.1955 3.4197,0 5.562,2.1955 2.1423,2.1822 2.1423,5.7749 l -0.0133,0.69193 z m -3.6459,-2.8609 q -0.35927,-1.2109 -1.4238,-1.9693 -1.0512,-0.75846 -2.4484,-0.75846 -1.5169,0 -2.6613,0.85161 -0.71854,0.53225 -1.3306,1.8762 l 7.864,0 z"
         inkscape:connector-curvature="0" />
      <path
         id="path4159"
         d="m 393.51,405.32 -3.0205,1.6633 q -0.85161,-0.89152 -1.6899,-1.2375 -0.82499,-0.34596 -1.9427,-0.34596 -2.0359,0 -3.3,1.2242 -1.2508,1.2109 -1.2508,3.1137 0,1.8496 1.2109,3.0205 1.2109,1.171 3.1802,1.171 2.435,0 3.7923,-1.6633 l 2.8608,1.956 q -2.3286,3.0205 -6.5733,3.0205 -3.8189,0 -5.9878,-2.2621 -2.1556,-2.2621 -2.1556,-5.2959 0,-2.1024 1.0512,-3.8721 1.0512,-1.7697 2.9274,-2.781 1.8895,-1.0113 4.2181,-1.0113 2.1556,0 3.8721,0.86491 1.7165,0.8516 2.8076,2.435 z"
         inkscape:connector-curvature="0" />
      <path
         id="path4161"
         d="m 410.96,405.32 -3.0205,1.6633 q -0.8516,-0.89152 -1.6899,-1.2375 -0.82499,-0.34596 -1.9427,-0.34596 -2.0359,0 -3.3,1.2242 -1.2508,1.2109 -1.2508,3.1137 0,1.8496 1.2109,3.0205 1.2109,1.171 3.1802,1.171 2.4351,0 3.7923,-1.6633 l 2.8609,1.956 q -2.3286,3.0205 -6.5733,3.0205 -3.8189,0 -5.9878,-2.2621 -2.1556,-2.2621 -2.1556,-5.2959 0,-2.1024 1.0512,-3.8721 1.0512,-1.7697 2.9274,-2.781 1.8895,-1.0113 4.2181,-1.0113 2.1556,0 3.8721,0.86491 1.7165,0.8516 2.8076,2.435 z"
         inkscape:connector-curvature="0" />
      <path
         id="path4163"
         d="m 415.67,396.43 q 0.95805,0 1.6367,0.69193 0.69193,0.69193 0.69193,1.6766 0,0.97136 -0.67862,1.6633 -0.67862,0.67862 -1.6234,0.67862 -0.97136,0 -1.6633,-0.69193 -0.67862,-0.70523 -0.67862,-1.7032 0,-0.95805 0.67862,-1.6367 0.67862,-0.67863 1.6367,-0.67863 z m -1.823,5.9612 3.6459,0 0,14.477 -3.6459,0 0,-14.477 z"
         inkscape:connector-curvature="0" />
      <path
         id="path4165"
         d="m 427.6,402.02 q 2.0492,0 3.8455,1.0246 1.8097,1.0246 2.8209,2.781 1.0113,1.7564 1.0113,3.7923 0,2.0492 -1.0246,3.8322 -1.0113,1.783 -2.7677,2.7943 -1.7564,0.99797 -3.8721,0.99797 -3.1137,0 -5.3225,-2.2088 -2.1955,-2.2222 -2.1955,-5.3891 0,-3.3931 2.4883,-5.6552 2.1822,-1.9693 5.0165,-1.9693 z m 0.0532,3.4197 q -1.6899,0 -2.8209,1.1843 -1.1177,1.171 -1.1177,3.0072 0,1.8895 1.1044,3.0604 1.1177,1.171 2.8209,1.171 1.7032,0 2.8342,-1.1843 1.131,-1.1843 1.131,-3.0471 0,-1.8629 -1.1177,-3.0205 -1.1044,-1.171 -2.8342,-1.171 z m 0.66531,-10.911 4.2979,0 -4.8701,5.2161 -2.608,0 3.1802,-5.2161 z"
         inkscape:connector-curvature="0" />
      <path
         id="path4167"
         d="m 438.26,402.39 3.6193,0 0,1.477 q 1.2375,-1.0379 2.2355,-1.4371 1.0113,-0.41249 2.0625,-0.41249 2.1556,0 3.6592,1.5036 1.2641,1.2774 1.2641,3.779 l 0,9.5672 -3.5927,0 0,-6.3471 q 0,-2.5947 -0.23951,-3.4463 -0.22621,-0.85161 -0.81169,-1.2907 -0.57217,-0.45241 -1.4238,-0.45241 -1.1044,0 -1.9028,0.74515 -0.78507,0.73185 -1.0911,2.0359 -0.15968,0.67862 -0.15968,2.9407 l 0,5.8149 -3.6193,0 0,-14.477 z"
         inkscape:connector-curvature="0" />
      <path
         id="path4169"
         d="m 480.68,400.49 -2.6214,2.5947 q -2.4883,-2.6346 -5.8016,-2.6346 -2.8875,0 -4.8435,1.9161 -1.9427,1.9161 -1.9427,4.6572 0,2.8342 2.0226,4.8036 2.0226,1.9693 4.9899,1.9693 1.9294,0 3.2467,-0.81168 1.3306,-0.81169 2.1423,-2.5415 l -5.6685,0 0,-3.4996 9.8467,0 0.0266,0.82499 q 0,2.5681 -1.3306,4.8701 -1.3306,2.302 -3.4463,3.5129 -2.1157,1.2109 -4.9632,1.2109 -3.0472,0 -5.4423,-1.3173 -2.3818,-1.3306 -3.779,-3.779 -1.3838,-2.4484 -1.3838,-5.2826 0,-3.8854 2.5681,-6.7596 3.0471,-3.4197 7.9306,-3.4197 2.5548,0 4.777,0.94475 1.8762,0.79838 3.6725,2.7411 z"
         inkscape:connector-curvature="0" />
      <path
         id="path4171"
         d="m 499.6,410.68 -11.67,0 q 0.25282,1.5435 1.3439,2.4617 1.1044,0.90483 2.8076,0.90483 2.0359,0 3.4996,-1.4238 l 3.0604,1.4371 q -1.1443,1.6234 -2.7411,2.4084 -1.5968,0.77177 -3.7923,0.77177 -3.4064,0 -5.5487,-2.1423 -2.1423,-2.1556 -2.1423,-5.389 0,-3.3133 2.129,-5.4955 2.1423,-2.1955 5.3624,-2.1955 3.4197,0 5.562,2.1955 2.1423,2.1822 2.1423,5.7749 l -0.0133,0.69193 z m -3.6459,-2.8609 q -0.35927,-1.2109 -1.4238,-1.9693 -1.0512,-0.75846 -2.4484,-0.75846 -1.5169,0 -2.6613,0.85161 -0.71854,0.53225 -1.3306,1.8762 l 7.864,0 z"
         inkscape:connector-curvature="0" />
      <path
         id="path4173"
         d="m 502.55,402.39 3.6193,0 0,1.477 q 1.2375,-1.0379 2.2355,-1.4371 1.0113,-0.41249 2.0625,-0.41249 2.1556,0 3.6592,1.5036 1.2641,1.2774 1.2641,3.779 l 0,9.5672 -3.5927,0 0,-6.3471 q 0,-2.5947 -0.23951,-3.4463 -0.22621,-0.85161 -0.81168,-1.2907 -0.57218,-0.45241 -1.4238,-0.45241 -1.1044,0 -1.9028,0.74515 -0.78507,0.73185 -1.0911,2.0359 -0.15968,0.67862 -0.15968,2.9407 l 0,5.8149 -3.6193,0 0,-14.477 z"
         inkscape:connector-curvature="0" />
      <path
         id="path4175"
         d="m 533.4,410.68 -11.67,0 q 0.25282,1.5435 1.3439,2.4617 1.1044,0.90483 2.8076,0.90483 2.0359,0 3.4996,-1.4238 l 3.0604,1.4371 q -1.1443,1.6234 -2.7411,2.4084 -1.5968,0.77177 -3.7923,0.77177 -3.4064,0 -5.5487,-2.1423 -2.1423,-2.1556 -2.1423,-5.389 0,-3.3133 2.129,-5.4955 2.1423,-2.1955 5.3624,-2.1955 3.4197,0 5.562,2.1955 2.1423,2.1822 2.1423,5.7749 l -0.0133,0.69193 z m -3.6459,-2.8609 q -0.35927,-1.2109 -1.4238,-1.9693 -1.0512,-0.75846 -2.4484,-0.75846 -1.5169,0 -2.6613,0.85161 -0.71854,0.53225 -1.3306,1.8762 l 7.864,0 z"
         inkscape:connector-curvature="0" />
      <path
         id="path4177"
         d="m 535.5,402.39 3.1137,0 0,1.823 q 0.50564,-1.0778 1.3439,-1.6367 0.8383,-0.55886 1.8363,-0.55886 0.70524,0 1.477,0.37257 l -1.131,3.127 q -0.63871,-0.31935 -1.0512,-0.31935 -0.8383,0 -1.4238,1.0379 -0.57217,1.0379 -0.57217,4.0717 l 0.0133,0.70523 0,5.8548 -3.606,0 0,-14.477 z"
         inkscape:connector-curvature="0" />
      <path
         id="path4179"
         d="m 555.78,402.39 3.6193,0 0,14.477 -3.6193,0 0,-1.5302 q -1.0645,1.0113 -2.1423,1.4637 -1.0645,0.43911 -2.3153,0.43911 -2.8076,0 -4.8568,-2.1689 -2.0492,-2.1822 -2.0492,-5.4157 0,-3.3532 1.9826,-5.4955 1.9826,-2.1423 4.8169,-2.1423 1.304,0 2.4484,0.49233 1.1443,0.49233 2.1157,1.477 l 0,-1.5968 z m -3.8189,2.9806 q -1.6899,0 -2.8076,1.1976 -1.1177,1.1843 -1.1177,3.0471 0,1.8762 1.131,3.0871 1.1444,1.2109 2.8076,1.2109 1.7165,0 2.8476,-1.1843 1.131,-1.1976 1.131,-3.127 0,-1.8895 -1.131,-3.0604 -1.131,-1.171 -2.8609,-1.171 z"
         inkscape:connector-curvature="0" />
      <path
         id="path4181"
         d="m 562.68,396.8 3.6326,0 0,20.066 -3.6326,0 0,-20.066 z"
         inkscape:connector-curvature="0" />
      <path
         id="path4183"
         d="m 338.19,430.87 3.6193,0 0,20.066 -3.6193,0 0,-1.5302 q -1.0645,1.0113 -2.1423,1.4637 -1.0645,0.43911 -2.3153,0.43911 -2.8076,0 -4.8568,-2.1689 -2.0492,-2.1822 -2.0492,-5.4157 0,-3.3532 1.9826,-5.4955 1.9826,-2.1423 4.8169,-2.1423 1.304,0 2.4484,0.49233 1.1443,0.49234 2.1157,1.477 l 0,-7.1854 z m -3.8189,8.5693 q -1.6899,0 -2.8076,1.1976 -1.1177,1.1843 -1.1177,3.0471 0,1.8762 1.131,3.0871 1.1444,1.2109 2.8076,1.2109 1.7165,0 2.8476,-1.1843 1.131,-1.1976 1.131,-3.127 0,-1.8895 -1.131,-3.0605 -1.131,-1.171 -2.8609,-1.171 z"
         inkscape:connector-curvature="0" />
      <path
         id="path4185"
         d="m 359.99,444.75 -11.67,0 q 0.25282,1.5435 1.3439,2.4617 1.1044,0.90483 2.8076,0.90483 2.0359,0 3.4996,-1.4238 l 3.0604,1.4371 q -1.1444,1.6234 -2.7411,2.4084 -1.5968,0.77177 -3.7923,0.77177 -3.4064,0 -5.5487,-2.1423 -2.1423,-2.1556 -2.1423,-5.389 0,-3.3133 2.129,-5.4955 2.1423,-2.1955 5.3624,-2.1955 3.4197,0 5.562,2.1955 2.1423,2.1822 2.1423,5.7749 l -0.0133,0.69193 z m -3.6459,-2.8609 q -0.35927,-1.2109 -1.4238,-1.9693 -1.0512,-0.75846 -2.4484,-0.75846 -1.5169,0 -2.6613,0.8516 -0.71854,0.53225 -1.3306,1.8762 l 7.864,0 z"
         inkscape:connector-curvature="0" />
      <path
         id="path4187"
         d="m 376.91,431.36 3.779,0 7.5314,19.574 -3.8721,0 -1.5302,-4.0318 -7.9838,0 -1.5968,4.0318 -3.8721,0 7.5447,-19.574 z m 1.9161,5.1895 -2.608,6.7197 5.2028,0 -2.5947,-6.7197 z"
         inkscape:connector-curvature="0" />
      <path
         id="path4189"
         d="m 401.42,430.87 3.6193,0 0,20.066 -3.6193,0 0,-1.5302 q -1.0645,1.0113 -2.1423,1.4637 -1.0645,0.43911 -2.3153,0.43911 -2.8076,0 -4.8568,-2.1689 -2.0492,-2.1822 -2.0492,-5.4157 0,-3.3532 1.9826,-5.4955 1.9826,-2.1423 4.8169,-2.1423 1.304,0 2.4484,0.49233 1.1443,0.49234 2.1157,1.477 l 0,-7.1854 z m -3.8189,8.5693 q -1.6899,0 -2.8076,1.1976 -1.1177,1.1843 -1.1177,3.0471 0,1.8762 1.131,3.0871 1.1443,1.2109 2.8076,1.2109 1.7165,0 2.8476,-1.1843 1.131,-1.1976 1.131,-3.127 0,-1.8895 -1.131,-3.0605 -1.131,-1.171 -2.8609,-1.171 z"
         inkscape:connector-curvature="0" />
      <path
         id="path4191"
         d="m 408.69,436.46 3.6459,0 0,1.6633 q 0.93144,-1.0246 2.0625,-1.5302 1.1444,-0.50564 2.4883,-0.50564 1.3572,0 2.4484,0.66531 1.0911,0.66532 1.7564,1.9427 0.86491,-1.2774 2.1157,-1.9427 1.2641,-0.66531 2.7544,-0.66531 1.5435,0 2.7145,0.71854 1.171,0.71854 1.6766,1.8762 0.51895,1.1576 0.51895,3.7657 l 0,8.4894 -3.6592,0 0,-7.3451 q 0,-2.4617 -0.61209,-3.3266 -0.61209,-0.87822 -1.8363,-0.87822 -0.93144,0 -1.6766,0.53226 -0.73185,0.53225 -1.0911,1.477 -0.35927,0.93144 -0.35927,3.0072 l 0,6.5334 -3.6592,0 0,-7.0124 q 0,-1.9427 -0.29274,-2.8076 -0.27943,-0.87821 -0.8516,-1.304 -0.57217,-0.42581 -1.3839,-0.42581 -0.90483,0 -1.65,0.54556 -0.73185,0.53226 -1.1044,1.5036 -0.35927,0.97136 -0.35927,3.0604 l 0,6.4402 -3.6459,0 0,-14.477 z"
         inkscape:connector-curvature="0" />
      <path
         id="path4193"
         d="m 435.74,430.49 q 0.95806,0 1.6367,0.69192 0.69193,0.69193 0.69193,1.6766 0,0.97136 -0.67862,1.6633 -0.67863,0.67862 -1.6234,0.67862 -0.97137,0 -1.6633,-0.69193 -0.67863,-0.70523 -0.67863,-1.7032 0,-0.95806 0.67863,-1.6367 0.67862,-0.67862 1.6367,-0.67862 z m -1.823,5.9612 3.6459,0 0,14.477 -3.6459,0 0,-14.477 z"
         inkscape:connector-curvature="0" />
      <path
         id="path4195"
         d="m 440.86,436.46 3.6193,0 0,1.477 q 1.2375,-1.0379 2.2355,-1.4371 1.0113,-0.41249 2.0625,-0.41249 2.1556,0 3.6592,1.5036 1.2641,1.2774 1.2641,3.779 l 0,9.5672 -3.5927,0 0,-6.3471 q 0,-2.5947 -0.23951,-3.4463 -0.22621,-0.85161 -0.81169,-1.2907 -0.57217,-0.45241 -1.4238,-0.45241 -1.1044,0 -1.9028,0.74515 -0.78508,0.73185 -1.0911,2.0359 -0.15968,0.67862 -0.15968,2.9407 l 0,5.8149 -3.6193,0 0,-14.477 z"
         inkscape:connector-curvature="0" />
      <path
         id="path4197"
         d="m 458.63,430.49 q 0.95805,0 1.6367,0.69192 0.69193,0.69193 0.69193,1.6766 0,0.97136 -0.67862,1.6633 -0.67862,0.67862 -1.6234,0.67862 -0.97136,0 -1.6633,-0.69193 -0.67862,-0.70523 -0.67862,-1.7032 0,-0.95806 0.67862,-1.6367 0.67862,-0.67862 1.6367,-0.67862 z m -1.823,5.9612 3.6459,0 0,14.477 -3.6459,0 0,-14.477 z"
         inkscape:connector-curvature="0" />
      <path
         id="path4199"
         d="m 472.61,438.48 -2.2488,2.2488 q -1.3706,-1.3572 -2.4883,-1.3572 -0.61209,0 -0.95806,0.26612 -0.34596,0.25282 -0.34596,0.63871 0,0.29274 0.2129,0.54556 0.22621,0.23951 1.0911,0.66531 l 1.3306,0.66532 q 2.1024,1.0379 2.8875,2.1157 0.78507,1.0778 0.78507,2.5282 0,1.9294 -1.4238,3.2201 -1.4105,1.2907 -3.7923,1.2907 -3.1669,0 -5.0564,-2.475 l 2.2355,-2.4351 q 0.6387,0.74515 1.4903,1.2109 0.86491,0.45241 1.5302,0.45241 0.71854,0 1.1576,-0.34596 0.43911,-0.34597 0.43911,-0.79838 0,-0.8383 -1.5834,-1.6367 l -1.2242,-0.61209 q -3.5129,-1.7697 -3.5129,-4.431 0,-1.7165 1.3173,-2.9274 1.3306,-1.2242 3.3931,-1.2242 1.4105,0 2.648,0.62539 1.2508,0.6121 2.1157,1.7697 z"
         inkscape:connector-curvature="0" />
      <path
         id="path4201"
         d="m 476.17,431.12 3.6193,0 0,5.3358 2.1556,0 0,3.127 -2.1556,0 0,11.35 -3.6193,0 0,-11.35 -1.8629,0 0,-3.127 1.8629,0 0,-5.3358 z"
         inkscape:connector-curvature="0" />
      <path
         id="path4203"
         d="m 483.07,436.46 3.1137,0 0,1.823 q 0.50564,-1.0778 1.3439,-1.6367 0.8383,-0.55886 1.8363,-0.55886 0.70524,0 1.477,0.37257 l -1.131,3.127 q -0.63871,-0.31935 -1.0512,-0.31935 -0.8383,0 -1.4238,1.0379 -0.57217,1.0379 -0.57217,4.0717 l 0.0133,0.70524 0,5.8548 -3.606,0 0,-14.477 z"
         inkscape:connector-curvature="0" />
      <path
         id="path4205"
         d="m 503.35,436.46 3.6193,0 0,14.477 -3.6193,0 0,-1.5302 q -1.0645,1.0113 -2.1423,1.4637 -1.0645,0.43911 -2.3153,0.43911 -2.8076,0 -4.8568,-2.1689 -2.0492,-2.1822 -2.0492,-5.4157 0,-3.3532 1.9826,-5.4955 1.9826,-2.1423 4.8169,-2.1423 1.304,0 2.4484,0.49233 1.1443,0.49234 2.1157,1.477 l 0,-1.5968 z m -3.8189,2.9806 q -1.6899,0 -2.8076,1.1976 -1.1177,1.1843 -1.1177,3.0471 0,1.8762 1.131,3.0871 1.1444,1.2109 2.8076,1.2109 1.7165,0 2.8476,-1.1843 1.131,-1.1976 1.131,-3.127 0,-1.8895 -1.131,-3.0605 -1.131,-1.171 -2.8609,-1.171 z"
         inkscape:connector-curvature="0" />
      <path
         id="path4207"
         d="m 524.81,439.38 -3.0205,1.6633 q -0.85161,-0.89152 -1.6899,-1.2375 -0.825,-0.34597 -1.9427,-0.34597 -2.0359,0 -3.3,1.2242 -1.2508,1.2109 -1.2508,3.1137 0,1.8496 1.2109,3.0205 1.2109,1.171 3.1802,1.171 2.435,0 3.7923,-1.6633 l 2.8609,1.956 q -2.3286,3.0205 -6.5733,3.0205 -3.8189,0 -5.9878,-2.2621 -2.1556,-2.2621 -2.1556,-5.2959 0,-2.1024 1.0512,-3.8721 1.0512,-1.7697 2.9274,-2.781 1.8895,-1.0113 4.2181,-1.0113 2.1556,0 3.8721,0.86491 1.7165,0.8516 2.8076,2.435 z"
         inkscape:connector-curvature="0" />
      <path
         id="path4209"
         d="m 529.52,430.49 q 0.95805,0 1.6367,0.69192 0.69192,0.69193 0.69192,1.6766 0,0.97136 -0.67862,1.6633 -0.67862,0.67862 -1.6234,0.67862 -0.97136,0 -1.6633,-0.69193 -0.67862,-0.70523 -0.67862,-1.7032 0,-0.95806 0.67862,-1.6367 0.67862,-0.67862 1.6367,-0.67862 z m -1.823,5.9612 3.6459,0 0,14.477 -3.6459,0 0,-14.477 z"
         inkscape:connector-curvature="0" />
      <path
         id="path4211"
         d="m 541.45,436.08 q 2.0492,0 3.8455,1.0246 1.8096,1.0246 2.8209,2.781 1.0113,1.7564 1.0113,3.7923 0,2.0492 -1.0246,3.8322 -1.0113,1.783 -2.7677,2.7943 -1.7564,0.99797 -3.8721,0.99797 -3.1137,0 -5.3225,-2.2088 -2.1955,-2.2222 -2.1955,-5.389 0,-3.3931 2.4883,-5.6552 2.1822,-1.9693 5.0165,-1.9693 z m 0.0532,3.4197 q -1.6899,0 -2.8209,1.1843 -1.1177,1.171 -1.1177,3.0072 0,1.8895 1.1044,3.0604 1.1177,1.171 2.8209,1.171 1.7032,0 2.8342,-1.1843 1.131,-1.1843 1.131,-3.0471 0,-1.8629 -1.1177,-3.0205 -1.1044,-1.171 -2.8342,-1.171 z m 0.66531,-10.911 4.2979,0 -4.8701,5.2161 -2.608,0 3.1802,-5.2161 z"
         inkscape:connector-curvature="0" />
      <path
         id="path4213"
         d="m 552.1,436.46 3.6193,0 0,1.477 q 1.2375,-1.0379 2.2355,-1.4371 1.0113,-0.41249 2.0625,-0.41249 2.1556,0 3.6592,1.5036 1.2641,1.2774 1.2641,3.779 l 0,9.5672 -3.5927,0 0,-6.3471 q 0,-2.5947 -0.23952,-3.4463 -0.2262,-0.85161 -0.81168,-1.2907 -0.57217,-0.45241 -1.4238,-0.45241 -1.1044,0 -1.9028,0.74515 -0.78507,0.73185 -1.0911,2.0359 -0.15967,0.67862 -0.15967,2.9407 l 0,5.8149 -3.6193,0 0,-14.477 z"
         inkscape:connector-curvature="0" />
      <path
         id="path4215"
         d="m 576.47,431.36 10.685,0 0,3.6459 -6.9858,0 0,3.5395 6.9858,0 0,3.5794 -6.9858,0 0,5.1496 6.9858,0 0,3.6592 -10.685,0 0,-19.574 z"
         inkscape:connector-curvature="0" />
      <path
         id="path4217"
         d="m 599.08,438.48 -2.2488,2.2488 q -1.3706,-1.3572 -2.4883,-1.3572 -0.61209,0 -0.95805,0.26612 -0.34597,0.25282 -0.34597,0.63871 0,0.29274 0.2129,0.54556 0.22621,0.23951 1.0911,0.66531 l 1.3306,0.66532 q 2.1024,1.0379 2.8875,2.1157 0.78508,1.0778 0.78508,2.5282 0,1.9294 -1.4238,3.2201 -1.4105,1.2907 -3.7923,1.2907 -3.1669,0 -5.0564,-2.475 l 2.2355,-2.4351 q 0.6387,0.74515 1.4903,1.2109 0.86491,0.45241 1.5302,0.45241 0.71855,0 1.1576,-0.34596 0.43911,-0.34597 0.43911,-0.79838 0,-0.8383 -1.5834,-1.6367 l -1.2242,-0.61209 q -3.5129,-1.7697 -3.5129,-4.431 0,-1.7165 1.3173,-2.9274 1.3306,-1.2242 3.3931,-1.2242 1.4105,0 2.648,0.62539 1.2508,0.6121 2.1157,1.7697 z"
         inkscape:connector-curvature="0" />
      <path
         id="path4219"
         d="m 616.36,439.38 -3.0205,1.6633 q -0.8516,-0.89152 -1.6899,-1.2375 -0.82499,-0.34597 -1.9427,-0.34597 -2.0359,0 -3.3,1.2242 -1.2508,1.2109 -1.2508,3.1137 0,1.8496 1.2109,3.0205 1.2109,1.171 3.1802,1.171 2.4351,0 3.7923,-1.6633 l 2.8609,1.956 q -2.3286,3.0205 -6.5733,3.0205 -3.8189,0 -5.9878,-2.2621 -2.1556,-2.2621 -2.1556,-5.2959 0,-2.1024 1.0512,-3.8721 1.0512,-1.7697 2.9274,-2.781 1.8895,-1.0113 4.2181,-1.0113 2.1556,0 3.8721,0.86491 1.7165,0.8516 2.8076,2.435 z"
         inkscape:connector-curvature="0" />
      <path
         id="path4221"
         d="m 626.45,436.08 q 2.0492,0 3.8455,1.0246 1.8097,1.0246 2.8209,2.781 1.0113,1.7564 1.0113,3.7923 0,2.0492 -1.0246,3.8322 -1.0113,1.783 -2.7677,2.7943 -1.7564,0.99797 -3.8721,0.99797 -3.1137,0 -5.3225,-2.2088 -2.1955,-2.2222 -2.1955,-5.389 0,-3.3931 2.4883,-5.6552 2.1822,-1.9693 5.0165,-1.9693 z m 0.0532,3.4197 q -1.6899,0 -2.8209,1.1843 -1.1177,1.171 -1.1177,3.0072 0,1.8895 1.1044,3.0604 1.1177,1.171 2.8209,1.171 1.7032,0 2.8342,-1.1843 1.131,-1.1843 1.131,-3.0471 0,-1.8629 -1.1177,-3.0205 -1.1044,-1.171 -2.8342,-1.171 z"
         inkscape:connector-curvature="0" />
      <path
         id="path4223"
         d="m 636.72,430.87 3.6326,0 0,20.066 -3.6326,0 0,-20.066 z"
         inkscape:connector-curvature="0" />
      <path
         id="path4225"
         d="m 654.35,436.46 3.6193,0 0,14.477 -3.6193,0 0,-1.5302 q -1.0645,1.0113 -2.1423,1.4637 -1.0645,0.43911 -2.3153,0.43911 -2.8076,0 -4.8568,-2.1689 -2.0492,-2.1822 -2.0492,-5.4157 0,-3.3532 1.9826,-5.4955 1.9826,-2.1423 4.8169,-2.1423 1.304,0 2.4484,0.49233 1.1443,0.49234 2.1157,1.477 l 0,-1.5968 z m -3.8189,2.9806 q -1.6899,0 -2.8076,1.1976 -1.1177,1.1843 -1.1177,3.0471 0,1.8762 1.131,3.0871 1.1444,1.2109 2.8076,1.2109 1.7165,0 2.8476,-1.1843 1.131,-1.1976 1.131,-3.127 0,-1.8895 -1.131,-3.0605 -1.131,-1.171 -2.8609,-1.171 z"
         inkscape:connector-curvature="0" />
      <path
         id="path4227"
         d="m 660.79,436.46 3.1137,0 0,1.823 q 0.50564,-1.0778 1.3439,-1.6367 0.8383,-0.55886 1.8363,-0.55886 0.70523,0 1.477,0.37257 l -1.131,3.127 q -0.6387,-0.31935 -1.0512,-0.31935 -0.8383,0 -1.4238,1.0379 -0.57217,1.0379 -0.57217,4.0717 l 0.0133,0.70524 0,5.8548 -3.606,0 0,-14.477 z"
         inkscape:connector-curvature="0" />
    </g>
    <g
       id="text3374"
       transform="matrix(0.375,0,0,0.375,32.797,319.33)">
      <path
         id="path4247"
         d="m 326.61,492.54 q -1.7431,0 -3.2468,0.6254 -1.5036,0.6254 -2.7544,1.8762 -1.2508,1.2508 -1.8895,2.781 -0.6387,1.5169 -0.6387,3.2467 0,1.7165 0.6387,3.2334 0.6387,1.5036 1.8895,2.7544 1.2508,1.2508 2.7544,1.8895 1.5036,0.62539 3.2468,0.62539 1.7564,0 3.26,-0.62539 1.5169,-0.63871 2.7677,-1.8895 1.2375,-1.2375 1.8496,-2.7411 0.6254,-1.5036 0.6254,-3.2467 0,-1.7697 -0.6254,-3.2734 -0.62539,-1.5169 -1.8496,-2.7544 -1.2508,-1.2508 -2.7677,-1.8762 -1.5036,-0.6254 -3.26,-0.6254 z m 0,-1.3706 q 2.0226,0 3.7657,0.73185 1.7564,0.73185 3.2068,2.1822 1.4504,1.45035 2.1689,3.1935 0.71854,1.7431 0.71854,3.7923 0,2.0226 -0.71854,3.7657 -0.71854,1.7298 -2.1689,3.1802 -1.45036,1.4504 -3.2068,2.1822 -1.7431,0.73185 -3.7657,0.73185 -2.0226,0 -3.779,-0.73185 -1.7431,-0.73185 -3.1935,-2.1822 -1.4504,-1.45035 -2.1689,-3.1802 -0.71854,-1.7431 -0.71854,-3.7657 0,-2.0492 0.71854,-3.7923 0.71854,-1.7431 2.1689,-3.1935 1.45036,-1.4504 3.1935,-2.1822 1.7564,-0.73185 3.779,-0.73185 z m -0.35928,5.5088 -1.6367,0 0,3.6725 1.6367,0 q 1.4637,0 2.0359,-0.4125 0.58548,-0.41249 0.58548,-1.4105 0,-1.0113 -0.58548,-1.4238 -0.58548,-0.4258 -2.0359,-0.4258 z m 0.0932,-1.3706 q 2.3419,0 3.4996,0.79837 1.1576,0.78508 1.1576,2.3951 0,1.1443 -0.70524,1.8895 -0.69192,0.74515 -1.9693,0.97136 0.31935,0.10645 0.75846,0.6254 0.45241,0.50564 1.0645,1.477 l 1.823,2.9673 -2.2887,0 -1.7165,-2.781 q -0.78507,-1.2774 -1.2774,-1.6101 -0.47902,-0.34596 -1.1976,-0.34596 l -0.87821,0 0,4.737 -2.0625,0 0,-11.124 3.7923,0 z"
         inkscape:connector-curvature="0"
         style="fill:#ffffff" />
    </g>
  </g>
  <text
     xml:space="preserve"
     style="font-style:normal;font-variant:normal;font-weight:bold;font-stretch:normal;font-size:10.62520885px;line-height:125%;font-family:'Century Gothic';-inkscape-font-specification:'Century Gothic, Bold';text-align:start;letter-spacing:0px;word-spacing:0px;writing-mode:lr-tb;text-anchor:start;fill:#ffffff;fill-opacity:1;stroke:none;stroke-width:1px;stroke-linecap:butt;stroke-linejoin:miter;stroke-opacity:1"
     x="0.51620483"
     y="69.669777"
     id="text4793"
     sodipodi:linespacing="125%"><tspan
       sodipodi:role="line"
       id="tspan4795"
       x="0.51620483"
       y="69.669777">Secretaria General</tspan></text>
</svg>
