<?xml version="1.0" encoding="UTF-8" standalone="no"?>
<!-- Created with Inkscape (http://www.inkscape.org/) -->
<svg id="svg3352" xmlns:rdf="http://www.w3.org/1999/02/22-rdf-syntax-ns#" xmlns="http://www.w3.org/2000/svg" height="16.933mm" width="30.056mm" version="1.1" xmlns:cc="http://creativecommons.org/ns#" xmlns:dc="http://purl.org/dc/elements/1.1/" viewBox="0 0 106.49705 60.000002">
 <metadata id="metadata3357">
  <rdf:RDF>
   <cc:Work rdf:about="">
    <dc:format>image/svg+xml</dc:format>
    <dc:type rdf:resource="http://purl.org/dc/dcmitype/StillImage"/>
    <dc:title/>
   </cc:Work>
  </rdf:RDF>
 </metadata>
 <g id="layer1" transform="translate(-52.475 -450.93)" fill="#fff">
  <g id="text3360" transform="matrix(0.375 0 0 0.375 32.797 319.33)">
   <path id="path4230" d="m62.158 352.51h14.137q13.668 0 20.311 3.4064 6.6425 3.3638 10.943 10.986 4.3006 7.6218 4.3006 17.799 0 7.2386-2.4271 13.328-2.3845 6.0464-6.6425 10.049-4.2154 4.0025-9.1547 5.5354t-17.117 1.5329h-14.35v-62.635zm11.88 11.497v39.472h5.5354q8.1754 0 11.837-1.8735 3.7045-1.8735 6.0464-6.3019 2.3419-4.4283 2.3419-10.901 0-9.9638-5.578-15.457-5.0245-4.9393-16.138-4.9393h-4.0451z"/>
   <path id="path4232" d="m183.45 362.73-8.3883 8.3031q-7.9625-8.4309-18.565-8.4309-9.2399 0-15.499 6.1315-6.2167 6.1316-6.2167 14.903 0 9.0696 6.4722 15.371 6.4722 6.3019 15.968 6.3019 6.1741 0 10.39-2.5974 4.258-2.5974 6.8554-8.1328h-18.139v-11.199h31.509l0.0852 2.64q0 8.218-4.258 15.584-4.258 7.3664-11.028 11.241-6.7702 3.8748-15.882 3.8748-9.7509 0-17.415-4.2154-7.6219-4.258-12.093-12.093-4.4283-7.8348-4.4283-16.904 0-12.433 8.218-21.631 9.7509-10.943 25.378-10.943 8.1754 0 15.286 3.0232 6.0038 2.5548 11.752 8.7715z"/>
   <path id="path4234" d="m220.3 352.51h12.093l24.1 62.635h-12.391l-4.8967-12.902h-25.548l-5.1096 12.902h-12.391l24.143-62.635zm6.1316 16.606-8.3457 21.503h16.649l-8.3031-21.503z"/>
   <path id="path4236" d="m268.19 352.51h34.192v11.667h-22.355v11.326h22.355v11.454h-22.355v16.479h22.355v11.71h-34.192v-62.635z"/>
   <path id="path4238" d="m55.614 439.71h11.965v40.536q0 5.2374 0.89418 7.409 0.93676 2.1716 3.0232 3.4916 2.129 1.2774 5.1096 1.2774 3.1509 0 5.4077-1.4477 2.2993-1.4477 3.1509-3.6619 0.89418-2.2568 0.89418-8.5586v-39.046h11.965v37.343q0 9.4528-1.0645 13.115-1.0645 3.6619-4.0877 7.0683-2.9806 3.4064-6.898 5.067-3.9174 1.618-9.1122 1.618-6.8128 0-11.88-3.1084-5.0245-3.1509-7.1961-7.8348-2.1716-4.7264-2.1716-15.925v-37.343z"/>
   <path id="path4240" d="m111.95 439.71h11.411l26.868 41.218v-41.218h11.922v62.635h-11.454l-26.826-41.09v41.09h-11.922v-62.635z"/>
   <path id="path4242" d="m195.53 439.71h12.093l24.1 62.635h-12.391l-4.8967-12.902h-25.548l-5.1096 12.902h-12.391l24.143-62.635zm6.1315 16.606-8.3457 21.503h16.649l-8.3031-21.503z"/>
   <path id="path4244" d="m247.05 439.71h11.667l14.477 43.687 14.69-43.687h11.497l10.56 62.635h-11.497l-6.7277-39.557-13.328 39.557h-10.517l-13.157-39.557-6.8554 39.557h-11.624l10.815-62.635z"/>
  </g>
  <path id="rect3366" d="m52.475 478.09h97.943v2.4283h-97.943z"/>
  <g id="text3374" transform="matrix(0.375 0 0 0.375 32.797 319.33)">
   <path id="path4247" fill="#fff" d="m326.61 492.54q-1.7431 0-3.2468 0.6254-1.5036 0.6254-2.7544 1.8762t-1.8895 2.781q-0.6387 1.5169-0.6387 3.2467 0 1.7165 0.6387 3.2334 0.6387 1.5036 1.8895 2.7544t2.7544 1.8895q1.5036 0.62539 3.2468 0.62539 1.7564 0 3.26-0.62539 1.5169-0.63871 2.7677-1.8895 1.2375-1.2375 1.8496-2.7411 0.6254-1.5036 0.6254-3.2467 0-1.7697-0.6254-3.2734-0.62539-1.5169-1.8496-2.7544-1.2508-1.2508-2.7677-1.8762-1.5036-0.6254-3.26-0.6254zm0-1.3706q2.0226 0 3.7657 0.73185 1.7564 0.73185 3.2068 2.1822t2.1689 3.1935q0.71854 1.7431 0.71854 3.7923 0 2.0226-0.71854 3.7657-0.71854 1.7298-2.1689 3.1802t-3.2068 2.1822q-1.7431 0.73185-3.7657 0.73185t-3.779-0.73185q-1.7431-0.73185-3.1935-2.1822t-2.1689-3.1802q-0.71854-1.7431-0.71854-3.7657 0-2.0492 0.71854-3.7923t2.1689-3.1935 3.1935-2.1822q1.7564-0.73185 3.779-0.73185zm-0.35928 5.5088h-1.6367v3.6725h1.6367q1.4637 0 2.0359-0.4125 0.58548-0.41249 0.58548-1.4105 0-1.0113-0.58548-1.4238-0.58548-0.4258-2.0359-0.4258zm0.0932-1.3706q2.3419 0 3.4996 0.79837 1.1576 0.78508 1.1576 2.3951 0 1.1443-0.70524 1.8895-0.69192 0.74515-1.9693 0.97136 0.31935 0.10645 0.75846 0.6254 0.45241 0.50564 1.0645 1.477l1.823 2.9673h-2.2887l-1.7165-2.781q-0.78507-1.2774-1.2774-1.6101-0.47902-0.34596-1.1976-0.34596h-0.87821v4.737h-2.0625v-11.124h3.7923z"/>
  </g>
 </g>
</svg>
