<?xml version="1.0" encoding="UTF-8" standalone="no"?>
<!-- Created with Inkscape (http://www.inkscape.org/) -->

<svg
   xmlns:dc="http://purl.org/dc/elements/1.1/"
   xmlns:cc="http://creativecommons.org/ns#"
   xmlns:rdf="http://www.w3.org/1999/02/22-rdf-syntax-ns#"
   xmlns:svg="http://www.w3.org/2000/svg"
   xmlns="http://www.w3.org/2000/svg"
   xmlns:sodipodi="http://sodipodi.sourceforge.net/DTD/sodipodi-0.dtd"
   xmlns:inkscape="http://www.inkscape.org/namespaces/inkscape"
   width="65.202446mm"
   height="16.933334mm"
   viewBox="0 0 231.03229 60.000002"
   id="svg3352"
   version="1.1"
   inkscape:version="0.91 r13725"
   sodipodi:docname="escudo_dgae_completow.svg">
  <defs
     id="defs3354" />
  <sodipodi:namedview
     id="base"
     pagecolor="#ffffff"
     bordercolor="#666666"
     borderopacity="1.0"
     inkscape:pageopacity="0.0"
     inkscape:pageshadow="2"
     inkscape:zoom="1.01"
     inkscape:cx="89.118081"
     inkscape:cy="-117.44972"
     inkscape:document-units="px"
     inkscape:current-layer="layer1"
     showgrid="false"
     inkscape:window-width="1920"
     inkscape:window-height="1057"
     inkscape:window-x="1912"
     inkscape:window-y="-8"
     inkscape:window-maximized="1"
     fit-margin-top="0"
     fit-margin-left="0"
     fit-margin-right="0"
     fit-margin-bottom="0"
     inkscape:showpageshadow="false" />
  <metadata
     id="metadata3357">
    <rdf:RDF>
      <cc:Work
         rdf:about="">
        <dc:format>image/svg+xml</dc:format>
        <dc:type
           rdf:resource="http://purl.org/dc/dcmitype/StillImage" />
        <dc:title></dc:title>
      </cc:Work>
    </rdf:RDF>
  </metadata>
  <g
     inkscape:label="Capa 1"
     inkscape:groupmode="layer"
     id="layer1"
     transform="translate(-52.475243,-450.93088)">
    <g
       style="font-style:normal;font-variant:normal;font-weight:bold;font-stretch:normal;font-size:87.20425415px;line-height:100%;font-family:'Century Gothic';-inkscape-font-specification:'Century Gothic, Bold';text-align:center;letter-spacing:0px;word-spacing:0px;writing-mode:lr-tb;text-anchor:middle;fill:#ffffff;fill-opacity:1;stroke:none;stroke-width:1px;stroke-linecap:butt;stroke-linejoin:miter;stroke-opacity:1"
       id="text3360"
       transform="matrix(0.37499998,0,0,0.37499998,32.797028,319.33181)">
      <path
         d="m 62.157641,352.50634 14.136627,0 q 13.668245,0 20.310757,3.40641 6.642515,3.36384 10.943115,10.9857 4.3006,7.62185 4.3006,17.79852 0,7.23863 -2.42707,13.3276 -2.3845,6.04639 -6.64252,10.04893 -4.215436,4.00254 -9.154739,5.53543 -4.939304,1.53289 -17.117242,1.53289 l -14.349528,0 0,-62.63548 z m 11.879876,11.49665 0,39.47185 5.535427,0 q 8.175399,0 11.837296,-1.87353 3.704478,-1.87353 6.046389,-6.30187 2.341911,-4.42834 2.341911,-10.90053 0,-9.96377 -5.578007,-15.45661 -5.024464,-4.93931 -16.137896,-4.93931 l -4.04512,0 z"
         style="letter-spacing:2.36541557px;fill:#ffffff;fill-opacity:1"
         id="path4230"
         inkscape:connector-curvature="0" />
      <path
         d="m 183.44957,362.72559 -8.3883,8.30314 q -7.9625,-8.43088 -18.56497,-8.43088 -9.23991,0 -15.4992,6.13154 -6.21671,6.13155 -6.21671,14.90308 0,9.06958 6.47219,15.37145 6.4722,6.30187 15.96758,6.30187 6.17413,0 10.38957,-2.59739 4.25802,-2.5974 6.85541,-8.13282 l -18.13916,0 0,-11.1986 31.50935,0 0.0852,2.63998 q 0,8.21798 -4.25802,15.58435 -4.25802,7.36638 -11.02828,11.24117 -6.77025,3.8748 -15.88241,3.8748 -9.75087,0 -17.4153,-4.21544 -7.62186,-4.25802 -12.09278,-12.09277 -4.42834,-7.83476 -4.42834,-16.90435 0,-12.43341 8.21798,-21.63074 9.75086,-10.94311 25.3778,-10.94311 8.1754,0 15.28629,3.02319 6.00381,2.55482 11.75214,8.77153 z"
         style="letter-spacing:2.36541557px;fill:#ffffff;fill-opacity:1"
         id="path4232"
         inkscape:connector-curvature="0" />
      <path
         d="m 220.30494,352.50634 12.09278,0 24.1004,62.63548 -12.39084,0 -4.89673,-12.90181 -25.54812,0 -5.10962,12.90181 -12.39084,0 24.14297,-62.63548 z m 6.13155,16.60628 -8.34572,21.503 16.64886,0 -8.30314,-21.503 z"
         style="letter-spacing:2.36541557px;fill:#ffffff;fill-opacity:1"
         id="path4234"
         inkscape:connector-curvature="0" />
      <path
         d="m 268.1886,352.50634 34.1919,0 0,11.66697 -22.3546,0 0,11.32634 22.3546,0 0,11.45407 -22.3546,0 0,16.47854 22.3546,0 0,11.70956 -34.1919,0 0,-62.63548 z"
         style="letter-spacing:2.36541557px;fill:#ffffff;fill-opacity:1"
         id="path4236"
         inkscape:connector-curvature="0" />
      <path
         d="m 55.614257,439.71059 11.965036,0 0,40.53635 q 0,5.23737 0.894185,7.40896 0.936764,2.17159 3.023194,3.49158 2.12901,1.2774 5.109624,1.2774 3.150935,0 5.407686,-1.44772 2.299331,-1.44773 3.150935,-3.6619 0.894184,-2.25675 0.894184,-8.55862 l 0,-39.04605 11.965037,0 0,37.34284 q 0,9.4528 -1.064505,13.1147 -1.064505,3.6619 -4.0877,7.06832 -2.980614,3.40641 -6.897992,5.06704 -3.917379,1.61805 -9.112164,1.61805 -6.812832,0 -11.879876,-3.10836 -5.024464,-3.15093 -7.196054,-7.83476 -2.17159,-4.7264 -2.17159,-15.92499 l 0,-37.34284 z"
         style="fill:#ffffff;fill-opacity:1"
         id="path4238"
         inkscape:connector-curvature="0" />
      <path
         d="m 111.94787,439.71059 11.41149,0 26.86811,41.21764 0,-41.21764 11.92245,0 0,62.63548 -11.45407,0 -26.82553,-41.0899 0,41.0899 -11.92245,0 0,-62.63548 z"
         style="fill:#ffffff;fill-opacity:1"
         id="path4240"
         inkscape:connector-curvature="0" />
      <path
         d="m 195.53281,439.71059 12.09277,0 24.1004,62.63548 -12.39084,0 -4.89672,-12.9018 -25.54813,0 -5.10962,12.9018 -12.39084,0 24.14298,-62.63548 z m 6.13154,16.60628 -8.34571,21.503 16.64885,0 -8.30314,-21.503 z"
         style="fill:#ffffff;fill-opacity:1"
         id="path4242"
         inkscape:connector-curvature="0" />
      <path
         d="m 247.05486,439.71059 11.66698,0 14.47727,43.68729 14.69017,-43.68729 11.49665,0 10.55989,62.63548 -11.49665,0 -6.72768,-39.55701 -13.3276,39.55701 -10.51731,0 -13.15728,-39.55701 -6.85541,39.55701 -11.6244,0 10.81537,-62.63548 z"
         style="fill:#ffffff;fill-opacity:1"
         id="path4244"
         inkscape:connector-curvature="0" />
    </g>
    <path
       style="fill:#ffffff;fill-opacity:1"
       d="m 52.475243,478.08587 97.942897,0 0,2.42833 -97.942897,0 z"
       id="rect3366"
       inkscape:connector-curvature="0" />
    <g
       style="font-style:normal;font-variant:normal;font-weight:bold;font-stretch:normal;font-size:27.25132942px;line-height:125%;font-family:'Century Gothic';-inkscape-font-specification:'Century Gothic, Bold';text-align:start;letter-spacing:0px;word-spacing:0px;writing-mode:lr-tb;text-anchor:start;fill:#ffffff;fill-opacity:1;stroke:none;stroke-width:1px;stroke-linecap:butt;stroke-linejoin:miter;stroke-opacity:1"
       id="text3368"
       transform="matrix(0.37499998,0,0,0.37499998,32.797028,319.33181)">
      <path
         d="m 327.90645,397.29504 4.4177,0 q 4.27132,0 6.34711,1.0645 2.07578,1.0512 3.41972,3.43303 1.34394,2.38183 1.34394,5.56204 0,2.26207 -0.75846,4.16487 -0.74515,1.8895 -2.07579,3.14029 -1.31732,1.2508 -2.86085,1.72982 -1.54354,0.47903 -5.34914,0.47903 l -4.48423,0 0,-19.57358 z m 3.71246,3.5927 0,12.33495 1.72982,0 q 2.55482,0 3.69916,-0.58548 1.15765,-0.58547 1.88949,-1.96933 0.73185,-1.38386 0.73185,-3.40642 0,-3.11367 -1.74312,-4.83019 -1.57015,-1.54353 -5.0431,-1.54353 l -1.2641,0 z"
         style="fill:#ffffff;fill-opacity:1"
         id="path4151"
         inkscape:connector-curvature="0" />
      <path
         d="m 348.0256,396.43012 q 0.95805,0 1.63667,0.69193 0.69193,0.69193 0.69193,1.6766 0,0.97136 -0.67862,1.66329 -0.67862,0.67862 -1.62337,0.67862 -0.97136,0 -1.66329,-0.69193 -0.67862,-0.70523 -0.67862,-1.70321 0,-0.95805 0.67862,-1.63667 0.67862,-0.67863 1.63668,-0.67863 z m -1.82297,5.96123 3.64593,0 0,14.47727 -3.64593,0 0,-14.47727 z"
         style="fill:#ffffff;fill-opacity:1"
         id="path4153"
         inkscape:connector-curvature="0" />
      <path
         d="m 352.29692,402.39135 3.11368,0 0,1.82297 q 0.50564,-1.07781 1.34394,-1.63668 0.8383,-0.55886 1.83627,-0.55886 0.70523,0 1.477,0.37257 l -1.13104,3.12699 q -0.6387,-0.31935 -1.0512,-0.31935 -0.83829,0 -1.42377,1.03789 -0.57217,1.03789 -0.57217,4.07173 l 0.0133,0.70523 0,5.85478 -3.60601,0 0,-14.47727 z"
         style="fill:#ffffff;fill-opacity:1"
         id="path4155"
         inkscape:connector-curvature="0" />
      <path
         d="m 376.38135,410.68119 -11.66964,0 q 0.25282,1.54353 1.34394,2.46166 1.10443,0.90483 2.80763,0.90483 2.03587,0 3.49956,-1.42377 l 3.06046,1.43708 q -1.14435,1.62337 -2.7411,2.40844 -1.59676,0.77177 -3.7923,0.77177 -3.40642,0 -5.54874,-2.14232 -2.14231,-2.15562 -2.14231,-5.38905 0,-3.31328 2.12901,-5.49551 2.14231,-2.19554 5.36244,-2.19554 3.41972,0 5.56204,2.19554 2.14232,2.18223 2.14232,5.77494 l -0.0133,0.69193 z m -3.64593,-2.86086 q -0.35927,-1.21088 -1.42377,-1.96934 -1.0512,-0.75846 -2.44837,-0.75846 -1.51692,0 -2.66126,0.85161 -0.71854,0.53225 -1.33063,1.87619 l 7.86403,0 z"
         style="fill:#ffffff;fill-opacity:1"
         id="path4157"
         inkscape:connector-curvature="0" />
      <path
         d="m 393.50658,405.31874 -3.02053,1.66329 q -0.85161,-0.89152 -1.68991,-1.23749 -0.82499,-0.34596 -1.94272,-0.34596 -2.03586,0 -3.29996,1.22418 -1.2508,1.21088 -1.2508,3.11368 0,1.84958 1.21088,3.02053 1.21087,1.17096 3.18021,1.17096 2.43505,0 3.7923,-1.66329 l 2.86085,1.95603 q -2.3286,3.02053 -6.57332,3.02053 -3.81891,0 -5.98784,-2.26207 -2.15562,-2.26208 -2.15562,-5.29592 0,-2.10239 1.0512,-3.87213 1.0512,-1.76974 2.92739,-2.78102 1.8895,-1.01128 4.2181,-1.01128 2.15562,0 3.87214,0.86491 1.71651,0.8516 2.80763,2.43505 z"
         style="fill:#ffffff;fill-opacity:1"
         id="path4159"
         inkscape:connector-curvature="0" />
      <path
         d="m 410.96446,405.31874 -3.02053,1.66329 q -0.8516,-0.89152 -1.6899,-1.23749 -0.82499,-0.34596 -1.94272,-0.34596 -2.03587,0 -3.29997,1.22418 -1.25079,1.21088 -1.25079,3.11368 0,1.84958 1.21087,3.02053 1.21088,1.17096 3.18021,1.17096 2.43506,0 3.7923,-1.66329 l 2.86086,1.95603 q -2.32861,3.02053 -6.57332,3.02053 -3.81891,0 -5.98784,-2.26207 -2.15562,-2.26208 -2.15562,-5.29592 0,-2.10239 1.0512,-3.87213 1.05119,-1.76974 2.92738,-2.78102 1.8895,-1.01128 4.21811,-1.01128 2.15562,0 3.87213,0.86491 1.71652,0.8516 2.80763,2.43505 z"
         style="fill:#ffffff;fill-opacity:1"
         id="path4161"
         inkscape:connector-curvature="0" />
      <path
         d="m 415.6749,396.43012 q 0.95805,0 1.63667,0.69193 0.69193,0.69193 0.69193,1.6766 0,0.97136 -0.67862,1.66329 -0.67862,0.67862 -1.62337,0.67862 -0.97136,0 -1.66329,-0.69193 -0.67862,-0.70523 -0.67862,-1.70321 0,-0.95805 0.67862,-1.63667 0.67862,-0.67863 1.63668,-0.67863 z m -1.82297,5.96123 3.64593,0 0,14.47727 -3.64593,0 0,-14.47727 z"
         style="fill:#ffffff;fill-opacity:1"
         id="path4163"
         inkscape:connector-curvature="0" />
      <path
         d="m 427.59735,402.01878 q 2.04917,0 3.84553,1.02458 1.80966,1.02459 2.82094,2.78102 1.01128,1.75644 1.01128,3.7923 0,2.04917 -1.02459,3.83222 -1.01128,1.78305 -2.76771,2.79433 -1.75644,0.99797 -3.87214,0.99797 -3.11368,0 -5.32253,-2.20885 -2.19554,-2.22215 -2.19554,-5.38906 0,-3.39311 2.48828,-5.65518 2.18224,-1.96933 5.01648,-1.96933 z m 0.0532,3.41972 q -1.6899,0 -2.82094,1.18426 -1.11773,1.17096 -1.11773,3.00723 0,1.88949 1.10442,3.06045 1.11773,1.17096 2.82094,1.17096 1.70321,0 2.83425,-1.18427 1.13103,-1.18426 1.13103,-3.04714 0,-1.86289 -1.11773,-3.02054 -1.10442,-1.17095 -2.83424,-1.17095 z m 0.66531,-10.91118 4.29794,0 -4.87011,5.21608 -2.60804,0 3.18021,-5.21608 z"
         style="fill:#ffffff;fill-opacity:1"
         id="path4165"
         inkscape:connector-curvature="0" />
      <path
         d="m 438.25571,402.39135 3.61932,0 0,1.477 q 1.23749,-1.03789 2.23546,-1.43708 1.01128,-0.41249 2.06248,-0.41249 2.15562,0 3.65923,1.50361 1.2641,1.27741 1.2641,3.77899 l 0,9.56724 -3.5927,0 0,-6.34711 q 0,-2.59473 -0.23951,-3.44633 -0.22621,-0.85161 -0.81169,-1.29072 -0.57217,-0.45241 -1.42377,-0.45241 -1.10443,0 -1.90281,0.74515 -0.78507,0.73185 -1.09111,2.03587 -0.15968,0.67862 -0.15968,2.94069 l 0,5.81486 -3.61932,0 0,-14.47727 z"
         style="fill:#ffffff;fill-opacity:1"
         id="path4167"
         inkscape:connector-curvature="0" />
      <path
         d="m 480.67624,400.48855 -2.62135,2.59473 q -2.48828,-2.63465 -5.80155,-2.63465 -2.88747,0 -4.8435,1.91611 -1.94272,1.91611 -1.94272,4.65721 0,2.83424 2.02256,4.80358 2.02256,1.96933 4.98987,1.96933 1.92941,0 3.24674,-0.81168 1.33063,-0.81169 2.14232,-2.54151 l -5.66849,0 0,-3.49956 9.84667,0 0.0266,0.82499 q 0,2.56812 -1.33063,4.87011 -1.33063,2.302 -3.44634,3.51287 -2.1157,1.21088 -4.96325,1.21088 -3.04715,0 -5.44228,-1.31733 -2.38183,-1.33063 -3.779,-3.77899 -1.38385,-2.44836 -1.38385,-5.28261 0,-3.88544 2.56812,-6.75961 3.04714,-3.41972 7.93056,-3.41972 2.55481,0 4.77697,0.94475 1.87619,0.79838 3.67254,2.7411 z"
         style="fill:#ffffff;fill-opacity:1"
         id="path4169"
         inkscape:connector-curvature="0" />
      <path
         d="m 499.59781,410.68119 -11.66963,0 q 0.25282,1.54353 1.34393,2.46166 1.10443,0.90483 2.80764,0.90483 2.03586,0 3.49956,-1.42377 l 3.06045,1.43708 q -1.14434,1.62337 -2.7411,2.40844 -1.59676,0.77177 -3.7923,0.77177 -3.40642,0 -5.54873,-2.14232 -2.14232,-2.15562 -2.14232,-5.38905 0,-3.31328 2.12901,-5.49551 2.14232,-2.19554 5.36244,-2.19554 3.41973,0 5.56204,2.19554 2.14232,2.18223 2.14232,5.77494 l -0.0133,0.69193 z m -3.64593,-2.86086 q -0.35927,-1.21088 -1.42377,-1.96934 -1.0512,-0.75846 -2.44836,-0.75846 -1.51692,0 -2.66127,0.85161 -0.71854,0.53225 -1.33063,1.87619 l 7.86403,0 z"
         style="fill:#ffffff;fill-opacity:1"
         id="path4171"
         inkscape:connector-curvature="0" />
      <path
         d="m 502.55182,402.39135 3.61931,0 0,1.477 q 1.23749,-1.03789 2.23546,-1.43708 1.01128,-0.41249 2.06248,-0.41249 2.15563,0 3.65924,1.50361 1.2641,1.27741 1.2641,3.77899 l 0,9.56724 -3.59271,0 0,-6.34711 q 0,-2.59473 -0.23951,-3.44633 -0.22621,-0.85161 -0.81168,-1.29072 -0.57218,-0.45241 -1.42378,-0.45241 -1.10442,0 -1.9028,0.74515 -0.78507,0.73185 -1.09112,2.03587 -0.15968,0.67862 -0.15968,2.94069 l 0,5.81486 -3.61931,0 0,-14.47727 z"
         style="fill:#ffffff;fill-opacity:1"
         id="path4173"
         inkscape:connector-curvature="0" />
      <path
         d="m 533.39585,410.68119 -11.66964,0 q 0.25282,1.54353 1.34394,2.46166 1.10442,0.90483 2.80763,0.90483 2.03587,0 3.49956,-1.42377 l 3.06045,1.43708 q -1.14434,1.62337 -2.7411,2.40844 -1.59676,0.77177 -3.7923,0.77177 -3.40641,0 -5.54873,-2.14232 -2.14232,-2.15562 -2.14232,-5.38905 0,-3.31328 2.12901,-5.49551 2.14232,-2.19554 5.36245,-2.19554 3.41972,0 5.56204,2.19554 2.14231,2.18223 2.14231,5.77494 l -0.0133,0.69193 z m -3.64593,-2.86086 q -0.35927,-1.21088 -1.42378,-1.96934 -1.0512,-0.75846 -2.44836,-0.75846 -1.51692,0 -2.66126,0.85161 -0.71854,0.53225 -1.33063,1.87619 l 7.86403,0 z"
         style="fill:#ffffff;fill-opacity:1"
         id="path4175"
         inkscape:connector-curvature="0" />
      <path
         d="m 535.49825,402.39135 3.11367,0 0,1.82297 q 0.50564,-1.07781 1.34394,-1.63668 0.8383,-0.55886 1.83627,-0.55886 0.70524,0 1.477,0.37257 l -1.13103,3.12699 q -0.63871,-0.31935 -1.0512,-0.31935 -0.8383,0 -1.42378,1.03789 -0.57217,1.03789 -0.57217,4.07173 l 0.0133,0.70523 0,5.85478 -3.60601,0 0,-14.47727 z"
         style="fill:#ffffff;fill-opacity:1"
         id="path4177"
         inkscape:connector-curvature="0" />
      <path
         d="m 555.77707,402.39135 3.61932,0 0,14.47727 -3.61932,0 0,-1.53022 q -1.0645,1.01128 -2.14232,1.46369 -1.0645,0.43911 -2.31529,0.43911 -2.80764,0 -4.85681,-2.16893 -2.04917,-2.18224 -2.04917,-5.41567 0,-3.35319 1.98264,-5.49551 1.98264,-2.14231 4.81688,-2.14231 1.30402,0 2.44837,0.49233 1.14434,0.49233 2.1157,1.477 l 0,-1.59676 z m -3.81891,2.98062 q -1.6899,0 -2.80763,1.19757 -1.11773,1.18426 -1.11773,3.04714 0,1.87619 1.13103,3.08707 1.14435,1.21087 2.80763,1.21087 1.71652,0 2.84756,-1.18426 1.13103,-1.19757 1.13103,-3.12699 0,-1.88949 -1.13103,-3.06045 -1.13104,-1.17095 -2.86086,-1.17095 z"
         style="fill:#ffffff;fill-opacity:1"
         id="path4179"
         inkscape:connector-curvature="0" />
      <path
         d="m 562.68305,396.8027 3.63263,0 0,20.06592 -3.63263,0 0,-20.06592 z"
         style="fill:#ffffff;fill-opacity:1"
         id="path4181"
         inkscape:connector-curvature="0" />
      <path
         d="m 338.19223,430.86686 3.61932,0 0,20.06592 -3.61932,0 0,-1.53022 q -1.0645,1.01128 -2.14232,1.46369 -1.0645,0.43911 -2.31529,0.43911 -2.80764,0 -4.85681,-2.16893 -2.04917,-2.18223 -2.04917,-5.41567 0,-3.35319 1.98264,-5.49551 1.98264,-2.14231 4.81689,-2.14231 1.30401,0 2.44836,0.49233 1.14434,0.49234 2.1157,1.477 l 0,-7.18541 z m -3.81891,8.56927 q -1.6899,0 -2.80763,1.19757 -1.11773,1.18426 -1.11773,3.04714 0,1.87619 1.13103,3.08707 1.14435,1.21087 2.80764,1.21087 1.71651,0 2.84755,-1.18426 1.13103,-1.19757 1.13103,-3.12698 0,-1.8895 -1.13103,-3.06046 -1.13104,-1.17095 -2.86086,-1.17095 z"
         style="fill:#ffffff;fill-opacity:1"
         id="path4183"
         inkscape:connector-curvature="0" />
      <path
         d="m 359.98797,444.74535 -11.66963,0 q 0.25282,1.54353 1.34393,2.46167 1.10443,0.90483 2.80764,0.90483 2.03586,0 3.49956,-1.42378 l 3.06045,1.43708 q -1.14435,1.62337 -2.7411,2.40844 -1.59676,0.77177 -3.7923,0.77177 -3.40642,0 -5.54873,-2.14232 -2.14232,-2.15562 -2.14232,-5.38905 0,-3.31327 2.12901,-5.49551 2.14232,-2.19554 5.36244,-2.19554 3.41973,0 5.56204,2.19554 2.14232,2.18224 2.14232,5.77494 l -0.0133,0.69193 z m -3.64593,-2.86086 q -0.35927,-1.21087 -1.42377,-1.96933 -1.0512,-0.75846 -2.44836,-0.75846 -1.51692,0 -2.66127,0.8516 -0.71854,0.53225 -1.33063,1.87619 l 7.86403,0 z"
         style="fill:#ffffff;fill-opacity:1"
         id="path4185"
         inkscape:connector-curvature="0" />
      <path
         d="m 376.9136,431.3592 3.779,0 7.53137,19.57358 -3.87214,0 -1.53022,-4.03181 -7.98379,0 -1.59676,4.03181 -3.87214,0 7.54468,-19.57358 z m 1.91611,5.18946 -2.60803,6.71969 5.20276,0 -2.59473,-6.71969 z"
         style="fill:#ffffff;fill-opacity:1"
         id="path4187"
         inkscape:connector-curvature="0" />
      <path
         d="m 401.42383,430.86686 3.61932,0 0,20.06592 -3.61932,0 0,-1.53022 q -1.0645,1.01128 -2.14231,1.46369 -1.06451,0.43911 -2.3153,0.43911 -2.80763,0 -4.85681,-2.16893 -2.04917,-2.18223 -2.04917,-5.41567 0,-3.35319 1.98264,-5.49551 1.98264,-2.14231 4.81689,-2.14231 1.30402,0 2.44836,0.49233 1.14434,0.49234 2.1157,1.477 l 0,-7.18541 z m -3.81891,8.56927 q -1.6899,0 -2.80763,1.19757 -1.11773,1.18426 -1.11773,3.04714 0,1.87619 1.13104,3.08707 1.14434,1.21087 2.80763,1.21087 1.71651,0 2.84755,-1.18426 1.13104,-1.19757 1.13104,-3.12698 0,-1.8895 -1.13104,-3.06046 -1.13104,-1.17095 -2.86086,-1.17095 z"
         style="fill:#ffffff;fill-opacity:1"
         id="path4189"
         inkscape:connector-curvature="0" />
      <path
         d="m 408.68908,436.45551 3.64593,0 0,1.66329 q 0.93144,-1.02458 2.06247,-1.53022 1.14435,-0.50564 2.48828,-0.50564 1.35725,0 2.44837,0.66531 1.09111,0.66532 1.75643,1.94273 0.86491,-1.27741 2.1157,-1.94273 1.2641,-0.66531 2.75441,-0.66531 1.54353,0 2.71449,0.71854 1.17095,0.71854 1.67659,1.87619 0.51895,1.15765 0.51895,3.76569 l 0,8.48942 -3.65924,0 0,-7.34508 q 0,-2.46167 -0.61209,-3.32658 -0.61209,-0.87822 -1.83627,-0.87822 -0.93144,0 -1.67659,0.53226 -0.73185,0.53225 -1.09112,1.477 -0.35927,0.93144 -0.35927,3.00722 l 0,6.5334 -3.65924,0 0,-7.01242 q 0,-1.94273 -0.29274,-2.80764 -0.27943,-0.87821 -0.8516,-1.30401 -0.57217,-0.42581 -1.38386,-0.42581 -0.90483,0 -1.64998,0.54556 -0.73185,0.53226 -1.10442,1.50362 -0.35927,0.97136 -0.35927,3.06045 l 0,6.44025 -3.64593,0 0,-14.47727 z"
         style="fill:#ffffff;fill-opacity:1"
         id="path4191"
         inkscape:connector-curvature="0" />
      <path
         d="m 435.74081,430.49429 q 0.95806,0 1.63668,0.69192 0.69193,0.69193 0.69193,1.6766 0,0.97136 -0.67862,1.66329 -0.67863,0.67862 -1.62337,0.67862 -0.97137,0 -1.66329,-0.69193 -0.67863,-0.70523 -0.67863,-1.7032 0,-0.95806 0.67863,-1.63668 0.67862,-0.67862 1.63667,-0.67862 z m -1.82296,5.96122 3.64593,0 0,14.47727 -3.64593,0 0,-14.47727 z"
         style="fill:#ffffff;fill-opacity:1"
         id="path4193"
         inkscape:connector-curvature="0" />
      <path
         d="m 440.86374,436.45551 3.61932,0 0,1.47701 q 1.23749,-1.0379 2.23546,-1.43709 1.01128,-0.41249 2.06248,-0.41249 2.15562,0 3.65924,1.50361 1.2641,1.27741 1.2641,3.77899 l 0,9.56724 -3.59271,0 0,-6.34711 q 0,-2.59473 -0.23951,-3.44633 -0.22621,-0.85161 -0.81169,-1.29072 -0.57217,-0.45241 -1.42377,-0.45241 -1.10443,0 -1.9028,0.74515 -0.78508,0.73185 -1.09112,2.03587 -0.15968,0.67862 -0.15968,2.94069 l 0,5.81486 -3.61932,0 0,-14.47727 z"
         style="fill:#ffffff;fill-opacity:1"
         id="path4195"
         inkscape:connector-curvature="0" />
      <path
         d="m 458.62768,430.49429 q 0.95805,0 1.63667,0.69192 0.69193,0.69193 0.69193,1.6766 0,0.97136 -0.67862,1.66329 -0.67862,0.67862 -1.62337,0.67862 -0.97136,0 -1.66329,-0.69193 -0.67862,-0.70523 -0.67862,-1.7032 0,-0.95806 0.67862,-1.63668 0.67862,-0.67862 1.63668,-0.67862 z m -1.82297,5.96122 3.64593,0 0,14.47727 -3.64593,0 0,-14.47727 z"
         style="fill:#ffffff;fill-opacity:1"
         id="path4197"
         inkscape:connector-curvature="0" />
      <path
         d="m 472.61261,438.47807 -2.24876,2.24877 q -1.37055,-1.35724 -2.48828,-1.35724 -0.61209,0 -0.95806,0.26612 -0.34596,0.25282 -0.34596,0.63871 0,0.29274 0.2129,0.54556 0.22621,0.23951 1.09112,0.66531 l 1.33063,0.66532 q 2.10239,1.03789 2.88747,2.1157 0.78507,1.07781 0.78507,2.5282 0,1.92942 -1.42378,3.22013 -1.41047,1.29071 -3.7923,1.29071 -3.1669,0 -5.05639,-2.47497 l 2.23546,-2.43506 q 0.6387,0.74515 1.4903,1.21088 0.86491,0.45241 1.53023,0.45241 0.71854,0 1.15765,-0.34596 0.43911,-0.34597 0.43911,-0.79838 0,-0.8383 -1.58345,-1.63668 l -1.22419,-0.61209 q -3.51286,-1.76974 -3.51286,-4.431 0,-1.71652 1.31732,-2.92739 1.33063,-1.22418 3.39311,-1.22418 1.41047,0 2.64796,0.62539 1.25079,0.6121 2.1157,1.76974 z"
         style="fill:#ffffff;fill-opacity:1"
         id="path4199"
         inkscape:connector-curvature="0" />
      <path
         d="m 476.16539,431.11968 3.61932,0 0,5.33583 2.15562,0 0,3.12699 -2.15562,0 0,11.35028 -3.61932,0 0,-11.35028 -1.86288,0 0,-3.12699 1.86288,0 0,-5.33583 z"
         style="fill:#ffffff;fill-opacity:1"
         id="path4201"
         inkscape:connector-curvature="0" />
      <path
         d="m 483.07137,436.45551 3.11367,0 0,1.82297 q 0.50564,-1.07781 1.34394,-1.63668 0.8383,-0.55886 1.83627,-0.55886 0.70524,0 1.477,0.37257 l -1.13103,3.12699 q -0.63871,-0.31935 -1.0512,-0.31935 -0.8383,0 -1.42378,1.03789 -0.57217,1.03789 -0.57217,4.07173 l 0.0133,0.70524 0,5.85477 -3.60601,0 0,-14.47727 z"
         style="fill:#ffffff;fill-opacity:1"
         id="path4203"
         inkscape:connector-curvature="0" />
      <path
         d="m 503.35019,436.45551 3.61932,0 0,14.47727 -3.61932,0 0,-1.53022 q -1.0645,1.01128 -2.14232,1.46369 -1.0645,0.43911 -2.31529,0.43911 -2.80764,0 -4.85681,-2.16893 -2.04917,-2.18223 -2.04917,-5.41567 0,-3.35319 1.98264,-5.49551 1.98264,-2.14231 4.81688,-2.14231 1.30402,0 2.44837,0.49233 1.14434,0.49234 2.1157,1.477 l 0,-1.59676 z m -3.81891,2.98062 q -1.6899,0 -2.80763,1.19757 -1.11773,1.18426 -1.11773,3.04714 0,1.87619 1.13103,3.08707 1.14435,1.21087 2.80763,1.21087 1.71652,0 2.84756,-1.18426 1.13103,-1.19757 1.13103,-3.12698 0,-1.8895 -1.13103,-3.06046 -1.13104,-1.17095 -2.86086,-1.17095 z"
         style="fill:#ffffff;fill-opacity:1"
         id="path4205"
         inkscape:connector-curvature="0" />
      <path
         d="m 524.81328,439.3829 -3.02053,1.66329 q -0.85161,-0.89152 -1.6899,-1.23748 -0.825,-0.34597 -1.94273,-0.34597 -2.03586,0 -3.29996,1.22418 -1.25079,1.21088 -1.25079,3.11368 0,1.84958 1.21087,3.02053 1.21087,1.17096 3.18021,1.17096 2.43505,0 3.7923,-1.66329 l 2.86086,1.95603 q -2.32861,3.02053 -6.57332,3.02053 -3.81892,0 -5.98784,-2.26207 -2.15563,-2.26208 -2.15563,-5.29592 0,-2.10239 1.0512,-3.87213 1.0512,-1.76974 2.92739,-2.78102 1.8895,-1.01128 4.2181,-1.01128 2.15562,0 3.87214,0.86491 1.71651,0.8516 2.80763,2.43505 z"
         style="fill:#ffffff;fill-opacity:1"
         id="path4207"
         inkscape:connector-curvature="0" />
      <path
         d="m 529.52372,430.49429 q 0.95805,0 1.63668,0.69192 0.69192,0.69193 0.69192,1.6766 0,0.97136 -0.67862,1.66329 -0.67862,0.67862 -1.62337,0.67862 -0.97136,0 -1.66329,-0.69193 -0.67862,-0.70523 -0.67862,-1.7032 0,-0.95806 0.67862,-1.63668 0.67862,-0.67862 1.63668,-0.67862 z m -1.82297,5.96122 3.64593,0 0,14.47727 -3.64593,0 0,-14.47727 z"
         style="fill:#ffffff;fill-opacity:1"
         id="path4209"
         inkscape:connector-curvature="0" />
      <path
         d="m 541.44616,436.08294 q 2.04917,0 3.84553,1.02458 1.80965,1.02459 2.82093,2.78102 1.01128,1.75644 1.01128,3.7923 0,2.04918 -1.02458,3.83222 -1.01128,1.78305 -2.76772,2.79433 -1.75643,0.99797 -3.87213,0.99797 -3.11368,0 -5.32253,-2.20885 -2.19554,-2.22215 -2.19554,-5.38905 0,-3.39311 2.48828,-5.65519 2.18224,-1.96933 5.01648,-1.96933 z m 0.0532,3.41972 q -1.68991,0 -2.82094,1.18426 -1.11773,1.17096 -1.11773,3.00723 0,1.8895 1.10442,3.06045 1.11773,1.17096 2.82094,1.17096 1.70321,0 2.83424,-1.18427 1.13104,-1.18426 1.13104,-3.04714 0,-1.86288 -1.11773,-3.02053 -1.10442,-1.17096 -2.83424,-1.17096 z m 0.66531,-10.91118 4.29794,0 -4.87011,5.21608 -2.60804,0 3.18021,-5.21608 z"
         style="fill:#ffffff;fill-opacity:1"
         id="path4211"
         inkscape:connector-curvature="0" />
      <path
         d="m 552.10452,436.45551 3.61932,0 0,1.47701 q 1.23749,-1.0379 2.23546,-1.43709 1.01128,-0.41249 2.06248,-0.41249 2.15562,0 3.65923,1.50361 1.2641,1.27741 1.2641,3.77899 l 0,9.56724 -3.5927,0 0,-6.34711 q 0,-2.59473 -0.23952,-3.44633 -0.2262,-0.85161 -0.81168,-1.29072 -0.57217,-0.45241 -1.42378,-0.45241 -1.10442,0 -1.9028,0.74515 -0.78507,0.73185 -1.09112,2.03587 -0.15967,0.67862 -0.15967,2.94069 l 0,5.81486 -3.61932,0 0,-14.47727 z"
         style="fill:#ffffff;fill-opacity:1"
         id="path4213"
         inkscape:connector-curvature="0" />
      <path
         d="m 576.46839,431.3592 10.68497,0 0,3.64593 -6.98582,0 0,3.53948 6.98582,0 0,3.57939 -6.98582,0 0,5.14955 6.98582,0 0,3.65923 -10.68497,0 0,-19.57358 z"
         style="fill:#ffffff;fill-opacity:1"
         id="path4215"
         inkscape:connector-curvature="0" />
      <path
         d="m 599.07581,438.47807 -2.24877,2.24877 q -1.37055,-1.35724 -2.48828,-1.35724 -0.61209,0 -0.95805,0.26612 -0.34597,0.25282 -0.34597,0.63871 0,0.29274 0.2129,0.54556 0.22621,0.23951 1.09112,0.66531 l 1.33063,0.66532 q 2.1024,1.03789 2.88747,2.1157 0.78508,1.07781 0.78508,2.5282 0,1.92942 -1.42378,3.22013 -1.41047,1.29071 -3.7923,1.29071 -3.1669,0 -5.0564,-2.47497 l 2.23546,-2.43506 q 0.6387,0.74515 1.49031,1.21088 0.86491,0.45241 1.53022,0.45241 0.71855,0 1.15765,-0.34596 0.43911,-0.34597 0.43911,-0.79838 0,-0.8383 -1.58345,-1.63668 l -1.22418,-0.61209 q -3.51287,-1.76974 -3.51287,-4.431 0,-1.71652 1.31733,-2.92739 1.33063,-1.22418 3.39311,-1.22418 1.41047,0 2.64795,0.62539 1.2508,0.6121 2.11571,1.76974 z"
         style="fill:#ffffff;fill-opacity:1"
         id="path4217"
         inkscape:connector-curvature="0" />
      <path
         d="m 616.36071,439.3829 -3.02054,1.66329 q -0.8516,-0.89152 -1.6899,-1.23748 -0.82499,-0.34597 -1.94272,-0.34597 -2.03587,0 -3.29997,1.22418 -1.25079,1.21088 -1.25079,3.11368 0,1.84958 1.21087,3.02053 1.21088,1.17096 3.18021,1.17096 2.43506,0 3.7923,-1.66329 l 2.86086,1.95603 q -2.32861,3.02053 -6.57332,3.02053 -3.81891,0 -5.98784,-2.26207 -2.15562,-2.26208 -2.15562,-5.29592 0,-2.10239 1.0512,-3.87213 1.05119,-1.76974 2.92738,-2.78102 1.8895,-1.01128 4.21811,-1.01128 2.15562,0 3.87213,0.86491 1.71652,0.8516 2.80764,2.43505 z"
         style="fill:#ffffff;fill-opacity:1"
         id="path4219"
         inkscape:connector-curvature="0" />
      <path
         d="m 626.44689,436.08294 q 2.04918,0 3.84553,1.02458 1.80966,1.02459 2.82094,2.78102 1.01128,1.75644 1.01128,3.7923 0,2.04918 -1.02459,3.83222 -1.01128,1.78305 -2.76771,2.79433 -1.75644,0.99797 -3.87214,0.99797 -3.11368,0 -5.32253,-2.20885 -2.19554,-2.22215 -2.19554,-5.38905 0,-3.39311 2.48828,-5.65519 2.18224,-1.96933 5.01648,-1.96933 z m 0.0532,3.41972 q -1.6899,0 -2.82094,1.18426 -1.11773,1.17096 -1.11773,3.00723 0,1.8895 1.10442,3.06045 1.11773,1.17096 2.82094,1.17096 1.70321,0 2.83425,-1.18427 1.13103,-1.18426 1.13103,-3.04714 0,-1.86288 -1.11773,-3.02053 -1.10442,-1.17096 -2.83424,-1.17096 z"
         style="fill:#ffffff;fill-opacity:1"
         id="path4221"
         inkscape:connector-curvature="0" />
      <path
         d="m 636.71937,430.86686 3.63262,0 0,20.06592 -3.63262,0 0,-20.06592 z"
         style="fill:#ffffff;fill-opacity:1"
         id="path4223"
         inkscape:connector-curvature="0" />
      <path
         d="m 654.35025,436.45551 3.61932,0 0,14.47727 -3.61932,0 0,-1.53022 q -1.0645,1.01128 -2.14232,1.46369 -1.0645,0.43911 -2.31529,0.43911 -2.80764,0 -4.85681,-2.16893 -2.04917,-2.18223 -2.04917,-5.41567 0,-3.35319 1.98264,-5.49551 1.98264,-2.14231 4.81689,-2.14231 1.30401,0 2.44836,0.49233 1.14434,0.49234 2.1157,1.477 l 0,-1.59676 z m -3.81891,2.98062 q -1.6899,0 -2.80763,1.19757 -1.11773,1.18426 -1.11773,3.04714 0,1.87619 1.13103,3.08707 1.14435,1.21087 2.80764,1.21087 1.71651,0 2.84755,-1.18426 1.13103,-1.19757 1.13103,-3.12698 0,-1.8895 -1.13103,-3.06046 -1.13104,-1.17095 -2.86086,-1.17095 z"
         style="fill:#ffffff;fill-opacity:1"
         id="path4225"
         inkscape:connector-curvature="0" />
      <path
         d="m 660.79048,436.45551 3.11368,0 0,1.82297 q 0.50564,-1.07781 1.34394,-1.63668 0.8383,-0.55886 1.83627,-0.55886 0.70523,0 1.477,0.37257 l -1.13104,3.12699 q -0.6387,-0.31935 -1.05119,-0.31935 -0.8383,0 -1.42378,1.03789 -0.57217,1.03789 -0.57217,4.07173 l 0.0133,0.70524 0,5.85477 -3.60601,0 0,-14.47727 z"
         style="fill:#ffffff;fill-opacity:1"
         id="path4227"
         inkscape:connector-curvature="0" />
    </g>
    <g
       style="font-style:normal;font-variant:normal;font-weight:normal;font-stretch:normal;font-size:27.25132942px;line-height:125%;font-family:sans-serif;-inkscape-font-specification:'sans-serif, Normal';text-align:start;letter-spacing:0px;word-spacing:0px;writing-mode:lr-tb;text-anchor:start;fill:#ffffff;fill-opacity:1;stroke:none;stroke-width:1px;stroke-linecap:butt;stroke-linejoin:miter;stroke-opacity:1"
       id="text3374"
       transform="matrix(0.37499998,0,0,0.37499998,32.797028,319.33181)">
      <path
         d="m 326.60742,492.54155 q -1.74313,0 -3.24675,0.6254 -1.50361,0.6254 -2.7544,1.87619 -1.2508,1.25079 -1.8895,2.78102 -0.6387,1.51692 -0.6387,3.24674 0,1.71651 0.6387,3.23343 0.6387,1.50362 1.8895,2.75441 1.25079,1.25079 2.7544,1.8895 1.50362,0.62539 3.24675,0.62539 1.75643,0 3.26004,-0.62539 1.51692,-0.63871 2.76772,-1.8895 1.23748,-1.23749 1.84957,-2.7411 0.6254,-1.50361 0.6254,-3.24674 0,-1.76974 -0.6254,-3.27335 -0.62539,-1.51692 -1.84957,-2.75441 -1.2508,-1.25079 -2.76772,-1.87619 -1.50361,-0.6254 -3.26004,-0.6254 z m 0,-1.37055 q 2.02255,0 3.76568,0.73185 1.75644,0.73185 3.20682,2.18224 1.45039,1.45038 2.16893,3.19351 0.71854,1.74313 0.71854,3.7923 0,2.02256 -0.71854,3.76569 -0.71854,1.72982 -2.16893,3.18021 -1.45038,1.45038 -3.20682,2.18223 -1.74313,0.73185 -3.76568,0.73185 -2.02256,0 -3.779,-0.73185 -1.74312,-0.73185 -3.19351,-2.18223 -1.45039,-1.45039 -2.16893,-3.18021 -0.71854,-1.74313 -0.71854,-3.76569 0,-2.04917 0.71854,-3.7923 0.71854,-1.74313 2.16893,-3.19351 1.45039,-1.45039 3.19351,-2.18224 1.75644,-0.73185 3.779,-0.73185 z m -0.35928,5.50882 -1.63667,0 0,3.67254 1.63667,0 q 1.4637,0 2.03587,-0.4125 0.58548,-0.41249 0.58548,-1.41047 0,-1.01128 -0.58548,-1.42377 -0.58548,-0.4258 -2.03587,-0.4258 z m 0.0932,-1.37055 q 2.34191,0 3.49956,0.79837 1.15765,0.78508 1.15765,2.39514 0,1.14434 -0.70524,1.8895 -0.69192,0.74515 -1.96933,0.97136 0.31935,0.10645 0.75846,0.6254 0.45241,0.50564 1.0645,1.477 l 1.82297,2.9673 -2.28869,0 -1.71651,-2.78102 q -0.78507,-1.2774 -1.27741,-1.61006 -0.47902,-0.34596 -1.19757,-0.34596 l -0.87821,0 0,4.73704 -2.06248,0 0,-11.12407 3.7923,0 z"
         style="fill:#ffffff;fill-opacity:1"
         id="path4247"
         inkscape:connector-curvature="0" />
    </g>
  </g>
</svg>
