<?xml version="1.0" encoding="UTF-8" standalone="no"?>
<!-- Created with Inkscape (http://www.inkscape.org/) -->
<svg id="svg3352" xmlns:rdf="http://www.w3.org/1999/02/22-rdf-syntax-ns#" xmlns="http://www.w3.org/2000/svg" height="16.933mm" width="65.202mm" version="1.1" xmlns:cc="http://creativecommons.org/ns#" xmlns:dc="http://purl.org/dc/elements/1.1/" viewBox="0 0 231.03229 60.000002">
 <metadata id="metadata3357">
  <rdf:RDF>
   <cc:Work rdf:about="">
    <dc:format>image/svg+xml</dc:format>
    <dc:type rdf:resource="http://purl.org/dc/dcmitype/StillImage"/>
    <dc:title/>
   </cc:Work>
  </rdf:RDF>
 </metadata>
 <g id="layer1" transform="translate(-52.475 -450.93)" fill="#fff">
  <g id="text3360" transform="matrix(0.375 0 0 0.375 32.797 319.33)">
   <path id="path4230" d="m62.158 352.51h14.137q13.668 0 20.311 3.4064 6.6425 3.3638 10.943 10.986 4.3006 7.6218 4.3006 17.799 0 7.2386-2.4271 13.328-2.3845 6.0464-6.6425 10.049-4.2154 4.0025-9.1547 5.5354t-17.117 1.5329h-14.35v-62.635zm11.88 11.497v39.472h5.5354q8.1754 0 11.837-1.8735 3.7045-1.8735 6.0464-6.3019 2.3419-4.4283 2.3419-10.901 0-9.9638-5.578-15.457-5.0245-4.9393-16.138-4.9393h-4.0451z"/>
   <path id="path4232" d="m183.45 362.73-8.3883 8.3031q-7.9625-8.4309-18.565-8.4309-9.2399 0-15.499 6.1315-6.2167 6.1316-6.2167 14.903 0 9.0696 6.4722 15.371 6.4722 6.3019 15.968 6.3019 6.1741 0 10.39-2.5974 4.258-2.5974 6.8554-8.1328h-18.139v-11.199h31.509l0.0852 2.64q0 8.218-4.258 15.584-4.258 7.3664-11.028 11.241-6.7702 3.8748-15.882 3.8748-9.7509 0-17.415-4.2154-7.6219-4.258-12.093-12.093-4.4283-7.8348-4.4283-16.904 0-12.433 8.218-21.631 9.7509-10.943 25.378-10.943 8.1754 0 15.286 3.0232 6.0038 2.5548 11.752 8.7715z"/>
   <path id="path4234" d="m220.3 352.51h12.093l24.1 62.635h-12.391l-4.8967-12.902h-25.548l-5.1096 12.902h-12.391l24.143-62.635zm6.1316 16.606-8.3457 21.503h16.649l-8.3031-21.503z"/>
   <path id="path4236" d="m268.19 352.51h34.192v11.667h-22.355v11.326h22.355v11.454h-22.355v16.479h22.355v11.71h-34.192v-62.635z"/>
   <path id="path4238" d="m55.614 439.71h11.965v40.536q0 5.2374 0.89418 7.409 0.93676 2.1716 3.0232 3.4916 2.129 1.2774 5.1096 1.2774 3.1509 0 5.4077-1.4477 2.2993-1.4477 3.1509-3.6619 0.89418-2.2568 0.89418-8.5586v-39.046h11.965v37.343q0 9.4528-1.0645 13.115-1.0645 3.6619-4.0877 7.0683-2.9806 3.4064-6.898 5.067-3.9174 1.618-9.1122 1.618-6.8128 0-11.88-3.1084-5.0245-3.1509-7.1961-7.8348-2.1716-4.7264-2.1716-15.925v-37.343z"/>
   <path id="path4240" d="m111.95 439.71h11.411l26.868 41.218v-41.218h11.922v62.635h-11.454l-26.826-41.09v41.09h-11.922v-62.635z"/>
   <path id="path4242" d="m195.53 439.71h12.093l24.1 62.635h-12.391l-4.8967-12.902h-25.548l-5.1096 12.902h-12.391l24.143-62.635zm6.1315 16.606-8.3457 21.503h16.649l-8.3031-21.503z"/>
   <path id="path4244" d="m247.05 439.71h11.667l14.477 43.687 14.69-43.687h11.497l10.56 62.635h-11.497l-6.7277-39.557-13.328 39.557h-10.517l-13.157-39.557-6.8554 39.557h-11.624l10.815-62.635z"/>
  </g>
  <path id="rect3366" d="m52.475 478.09h97.943v2.4283h-97.943z"/>
  <g id="text3368" transform="matrix(0.375 0 0 0.375 32.797 319.33)">
   <path id="path4151" d="m327.91 397.3h4.4177q4.2713 0 6.3471 1.0645 2.0758 1.0512 3.4197 3.433t1.3439 5.562q0 2.2621-0.75846 4.1649-0.74515 1.8895-2.0758 3.1403-1.3173 1.2508-2.8608 1.7298-1.5435 0.47903-5.3491 0.47903h-4.4842v-19.574zm3.7125 3.5927v12.335h1.7298q2.5548 0 3.6992-0.58548 1.1576-0.58547 1.8895-1.9693 0.73185-1.3839 0.73185-3.4064 0-3.1137-1.7431-4.8302-1.5702-1.5435-5.0431-1.5435h-1.2641z"/>
   <path id="path4153" d="m348.03 396.43q0.95805 0 1.6367 0.69193 0.69193 0.69193 0.69193 1.6766 0 0.97136-0.67862 1.6633-0.67862 0.67862-1.6234 0.67862-0.97136 0-1.6633-0.69193-0.67862-0.70523-0.67862-1.7032 0-0.95805 0.67862-1.6367 0.67862-0.67863 1.6367-0.67863zm-1.823 5.9612h3.6459v14.477h-3.6459v-14.477z"/>
   <path id="path4155" d="m352.3 402.39h3.1137v1.823q0.50564-1.0778 1.3439-1.6367 0.8383-0.55886 1.8363-0.55886 0.70523 0 1.477 0.37257l-1.131 3.127q-0.6387-0.31935-1.0512-0.31935-0.83829 0-1.4238 1.0379-0.57217 1.0379-0.57217 4.0717l0.0133 0.70523v5.8548h-3.606v-14.477z"/>
   <path id="path4157" d="m376.38 410.68h-11.67q0.25282 1.5435 1.3439 2.4617 1.1044 0.90483 2.8076 0.90483 2.0359 0 3.4996-1.4238l3.0605 1.4371q-1.1444 1.6234-2.7411 2.4084-1.5968 0.77177-3.7923 0.77177-3.4064 0-5.5487-2.1423-2.1423-2.1556-2.1423-5.389 0-3.3133 2.129-5.4955 2.1423-2.1955 5.3624-2.1955 3.4197 0 5.562 2.1955 2.1423 2.1822 2.1423 5.7749l-0.0133 0.69193zm-3.6459-2.8609q-0.35927-1.2109-1.4238-1.9693-1.0512-0.75846-2.4484-0.75846-1.5169 0-2.6613 0.85161-0.71854 0.53225-1.3306 1.8762h7.864z"/>
   <path id="path4159" d="m393.51 405.32-3.0205 1.6633q-0.85161-0.89152-1.6899-1.2375-0.82499-0.34596-1.9427-0.34596-2.0359 0-3.3 1.2242-1.2508 1.2109-1.2508 3.1137 0 1.8496 1.2109 3.0205 1.2109 1.171 3.1802 1.171 2.435 0 3.7923-1.6633l2.8608 1.956q-2.3286 3.0205-6.5733 3.0205-3.8189 0-5.9878-2.2621-2.1556-2.2621-2.1556-5.2959 0-2.1024 1.0512-3.8721t2.9274-2.781q1.8895-1.0113 4.2181-1.0113 2.1556 0 3.8721 0.86491 1.7165 0.8516 2.8076 2.435z"/>
   <path id="path4161" d="m410.96 405.32-3.0205 1.6633q-0.8516-0.89152-1.6899-1.2375-0.82499-0.34596-1.9427-0.34596-2.0359 0-3.3 1.2242-1.2508 1.2109-1.2508 3.1137 0 1.8496 1.2109 3.0205 1.2109 1.171 3.1802 1.171 2.4351 0 3.7923-1.6633l2.8609 1.956q-2.3286 3.0205-6.5733 3.0205-3.8189 0-5.9878-2.2621-2.1556-2.2621-2.1556-5.2959 0-2.1024 1.0512-3.8721t2.9274-2.781q1.8895-1.0113 4.2181-1.0113 2.1556 0 3.8721 0.86491 1.7165 0.8516 2.8076 2.435z"/>
   <path id="path4163" d="m415.67 396.43q0.95805 0 1.6367 0.69193 0.69193 0.69193 0.69193 1.6766 0 0.97136-0.67862 1.6633-0.67862 0.67862-1.6234 0.67862-0.97136 0-1.6633-0.69193-0.67862-0.70523-0.67862-1.7032 0-0.95805 0.67862-1.6367 0.67862-0.67863 1.6367-0.67863zm-1.823 5.9612h3.6459v14.477h-3.6459v-14.477z"/>
   <path id="path4165" d="m427.6 402.02q2.0492 0 3.8455 1.0246 1.8097 1.0246 2.8209 2.781 1.0113 1.7564 1.0113 3.7923 0 2.0492-1.0246 3.8322-1.0113 1.783-2.7677 2.7943-1.7564 0.99797-3.8721 0.99797-3.1137 0-5.3225-2.2088-2.1955-2.2222-2.1955-5.3891 0-3.3931 2.4883-5.6552 2.1822-1.9693 5.0165-1.9693zm0.0532 3.4197q-1.6899 0-2.8209 1.1843-1.1177 1.171-1.1177 3.0072 0 1.8895 1.1044 3.0604 1.1177 1.171 2.8209 1.171t2.8342-1.1843 1.131-3.0471q0-1.8629-1.1177-3.0205-1.1044-1.171-2.8342-1.171zm0.66531-10.911h4.2979l-4.8701 5.2161h-2.608l3.1802-5.2161z"/>
   <path id="path4167" d="m438.26 402.39h3.6193v1.477q1.2375-1.0379 2.2355-1.4371 1.0113-0.41249 2.0625-0.41249 2.1556 0 3.6592 1.5036 1.2641 1.2774 1.2641 3.779v9.5672h-3.5927v-6.3471q0-2.5947-0.23951-3.4463-0.22621-0.85161-0.81169-1.2907-0.57217-0.45241-1.4238-0.45241-1.1044 0-1.9028 0.74515-0.78507 0.73185-1.0911 2.0359-0.15968 0.67862-0.15968 2.9407v5.8149h-3.6193v-14.477z"/>
   <path id="path4169" d="m480.68 400.49-2.6214 2.5947q-2.4883-2.6346-5.8016-2.6346-2.8875 0-4.8435 1.9161-1.9427 1.9161-1.9427 4.6572 0 2.8342 2.0226 4.8036 2.0226 1.9693 4.9899 1.9693 1.9294 0 3.2467-0.81168 1.3306-0.81169 2.1423-2.5415h-5.6685v-3.4996h9.8467l0.0266 0.82499q0 2.5681-1.3306 4.8701t-3.4463 3.5129-4.9632 1.2109q-3.0472 0-5.4423-1.3173-2.3818-1.3306-3.779-3.779-1.3838-2.4484-1.3838-5.2826 0-3.8854 2.5681-6.7596 3.0471-3.4197 7.9306-3.4197 2.5548 0 4.777 0.94475 1.8762 0.79838 3.6725 2.7411z"/>
   <path id="path4171" d="m499.6 410.68h-11.67q0.25282 1.5435 1.3439 2.4617 1.1044 0.90483 2.8076 0.90483 2.0359 0 3.4996-1.4238l3.0604 1.4371q-1.1443 1.6234-2.7411 2.4084-1.5968 0.77177-3.7923 0.77177-3.4064 0-5.5487-2.1423-2.1423-2.1556-2.1423-5.389 0-3.3133 2.129-5.4955 2.1423-2.1955 5.3624-2.1955 3.4197 0 5.562 2.1955 2.1423 2.1822 2.1423 5.7749l-0.0133 0.69193zm-3.6459-2.8609q-0.35927-1.2109-1.4238-1.9693-1.0512-0.75846-2.4484-0.75846-1.5169 0-2.6613 0.85161-0.71854 0.53225-1.3306 1.8762h7.864z"/>
   <path id="path4173" d="m502.55 402.39h3.6193v1.477q1.2375-1.0379 2.2355-1.4371 1.0113-0.41249 2.0625-0.41249 2.1556 0 3.6592 1.5036 1.2641 1.2774 1.2641 3.779v9.5672h-3.5927v-6.3471q0-2.5947-0.23951-3.4463-0.22621-0.85161-0.81168-1.2907-0.57218-0.45241-1.4238-0.45241-1.1044 0-1.9028 0.74515-0.78507 0.73185-1.0911 2.0359-0.15968 0.67862-0.15968 2.9407v5.8149h-3.6193v-14.477z"/>
   <path id="path4175" d="m533.4 410.68h-11.67q0.25282 1.5435 1.3439 2.4617 1.1044 0.90483 2.8076 0.90483 2.0359 0 3.4996-1.4238l3.0604 1.4371q-1.1443 1.6234-2.7411 2.4084-1.5968 0.77177-3.7923 0.77177-3.4064 0-5.5487-2.1423-2.1423-2.1556-2.1423-5.389 0-3.3133 2.129-5.4955 2.1423-2.1955 5.3624-2.1955 3.4197 0 5.562 2.1955 2.1423 2.1822 2.1423 5.7749l-0.0133 0.69193zm-3.6459-2.8609q-0.35927-1.2109-1.4238-1.9693-1.0512-0.75846-2.4484-0.75846-1.5169 0-2.6613 0.85161-0.71854 0.53225-1.3306 1.8762h7.864z"/>
   <path id="path4177" d="m535.5 402.39h3.1137v1.823q0.50564-1.0778 1.3439-1.6367 0.8383-0.55886 1.8363-0.55886 0.70524 0 1.477 0.37257l-1.131 3.127q-0.63871-0.31935-1.0512-0.31935-0.8383 0-1.4238 1.0379-0.57217 1.0379-0.57217 4.0717l0.0133 0.70523v5.8548h-3.606v-14.477z"/>
   <path id="path4179" d="m555.78 402.39h3.6193v14.477h-3.6193v-1.5302q-1.0645 1.0113-2.1423 1.4637-1.0645 0.43911-2.3153 0.43911-2.8076 0-4.8568-2.1689-2.0492-2.1822-2.0492-5.4157 0-3.3532 1.9826-5.4955t4.8169-2.1423q1.304 0 2.4484 0.49233 1.1443 0.49233 2.1157 1.477v-1.5968zm-3.8189 2.9806q-1.6899 0-2.8076 1.1976-1.1177 1.1843-1.1177 3.0471 0 1.8762 1.131 3.0871 1.1444 1.2109 2.8076 1.2109 1.7165 0 2.8476-1.1843 1.131-1.1976 1.131-3.127 0-1.8895-1.131-3.0604-1.131-1.171-2.8609-1.171z"/>
   <path id="path4181" d="m562.68 396.8h3.6326v20.066h-3.6326v-20.066z"/>
   <path id="path4183" d="m338.19 430.87h3.6193v20.066h-3.6193v-1.5302q-1.0645 1.0113-2.1423 1.4637-1.0645 0.43911-2.3153 0.43911-2.8076 0-4.8568-2.1689-2.0492-2.1822-2.0492-5.4157 0-3.3532 1.9826-5.4955t4.8169-2.1423q1.304 0 2.4484 0.49233 1.1443 0.49234 2.1157 1.477v-7.1854zm-3.8189 8.5693q-1.6899 0-2.8076 1.1976-1.1177 1.1843-1.1177 3.0471 0 1.8762 1.131 3.0871 1.1444 1.2109 2.8076 1.2109 1.7165 0 2.8476-1.1843 1.131-1.1976 1.131-3.127 0-1.8895-1.131-3.0605t-2.8609-1.171z"/>
   <path id="path4185" d="m359.99 444.75h-11.67q0.25282 1.5435 1.3439 2.4617 1.1044 0.90483 2.8076 0.90483 2.0359 0 3.4996-1.4238l3.0604 1.4371q-1.1444 1.6234-2.7411 2.4084-1.5968 0.77177-3.7923 0.77177-3.4064 0-5.5487-2.1423-2.1423-2.1556-2.1423-5.389 0-3.3133 2.129-5.4955 2.1423-2.1955 5.3624-2.1955 3.4197 0 5.562 2.1955 2.1423 2.1822 2.1423 5.7749l-0.0133 0.69193zm-3.6459-2.8609q-0.35927-1.2109-1.4238-1.9693-1.0512-0.75846-2.4484-0.75846-1.5169 0-2.6613 0.8516-0.71854 0.53225-1.3306 1.8762h7.864z"/>
   <path id="path4187" d="m376.91 431.36h3.779l7.5314 19.574h-3.8721l-1.5302-4.0318h-7.9838l-1.5968 4.0318h-3.8721l7.5447-19.574zm1.9161 5.1895-2.608 6.7197h5.2028l-2.5947-6.7197z"/>
   <path id="path4189" d="m401.42 430.87h3.6193v20.066h-3.6193v-1.5302q-1.0645 1.0113-2.1423 1.4637-1.0645 0.43911-2.3153 0.43911-2.8076 0-4.8568-2.1689-2.0492-2.1822-2.0492-5.4157 0-3.3532 1.9826-5.4955t4.8169-2.1423q1.304 0 2.4484 0.49233 1.1443 0.49234 2.1157 1.477v-7.1854zm-3.8189 8.5693q-1.6899 0-2.8076 1.1976-1.1177 1.1843-1.1177 3.0471 0 1.8762 1.131 3.0871 1.1443 1.2109 2.8076 1.2109 1.7165 0 2.8476-1.1843 1.131-1.1976 1.131-3.127 0-1.8895-1.131-3.0605t-2.8609-1.171z"/>
   <path id="path4191" d="m408.69 436.46h3.6459v1.6633q0.93144-1.0246 2.0625-1.5302 1.1444-0.50564 2.4883-0.50564 1.3572 0 2.4484 0.66531 1.0911 0.66532 1.7564 1.9427 0.86491-1.2774 2.1157-1.9427 1.2641-0.66531 2.7544-0.66531 1.5435 0 2.7145 0.71854t1.6766 1.8762q0.51895 1.1576 0.51895 3.7657v8.4894h-3.6592v-7.3451q0-2.4617-0.61209-3.3266-0.61209-0.87822-1.8363-0.87822-0.93144 0-1.6766 0.53226-0.73185 0.53225-1.0911 1.477-0.35927 0.93144-0.35927 3.0072v6.5334h-3.6592v-7.0124q0-1.9427-0.29274-2.8076-0.27943-0.87821-0.8516-1.304-0.57217-0.42581-1.3839-0.42581-0.90483 0-1.65 0.54556-0.73185 0.53226-1.1044 1.5036-0.35927 0.97136-0.35927 3.0604v6.4402h-3.6459v-14.477z"/>
   <path id="path4193" d="m435.74 430.49q0.95806 0 1.6367 0.69192 0.69193 0.69193 0.69193 1.6766 0 0.97136-0.67862 1.6633-0.67863 0.67862-1.6234 0.67862-0.97137 0-1.6633-0.69193-0.67863-0.70523-0.67863-1.7032 0-0.95806 0.67863-1.6367 0.67862-0.67862 1.6367-0.67862zm-1.823 5.9612h3.6459v14.477h-3.6459v-14.477z"/>
   <path id="path4195" d="m440.86 436.46h3.6193v1.477q1.2375-1.0379 2.2355-1.4371 1.0113-0.41249 2.0625-0.41249 2.1556 0 3.6592 1.5036 1.2641 1.2774 1.2641 3.779v9.5672h-3.5927v-6.3471q0-2.5947-0.23951-3.4463-0.22621-0.85161-0.81169-1.2907-0.57217-0.45241-1.4238-0.45241-1.1044 0-1.9028 0.74515-0.78508 0.73185-1.0911 2.0359-0.15968 0.67862-0.15968 2.9407v5.8149h-3.6193v-14.477z"/>
   <path id="path4197" d="m458.63 430.49q0.95805 0 1.6367 0.69192 0.69193 0.69193 0.69193 1.6766 0 0.97136-0.67862 1.6633-0.67862 0.67862-1.6234 0.67862-0.97136 0-1.6633-0.69193-0.67862-0.70523-0.67862-1.7032 0-0.95806 0.67862-1.6367 0.67862-0.67862 1.6367-0.67862zm-1.823 5.9612h3.6459v14.477h-3.6459v-14.477z"/>
   <path id="path4199" d="m472.61 438.48-2.2488 2.2488q-1.3706-1.3572-2.4883-1.3572-0.61209 0-0.95806 0.26612-0.34596 0.25282-0.34596 0.63871 0 0.29274 0.2129 0.54556 0.22621 0.23951 1.0911 0.66531l1.3306 0.66532q2.1024 1.0379 2.8875 2.1157 0.78507 1.0778 0.78507 2.5282 0 1.9294-1.4238 3.2201-1.4105 1.2907-3.7923 1.2907-3.1669 0-5.0564-2.475l2.2355-2.4351q0.6387 0.74515 1.4903 1.2109 0.86491 0.45241 1.5302 0.45241 0.71854 0 1.1576-0.34596 0.43911-0.34597 0.43911-0.79838 0-0.8383-1.5834-1.6367l-1.2242-0.61209q-3.5129-1.7697-3.5129-4.431 0-1.7165 1.3173-2.9274 1.3306-1.2242 3.3931-1.2242 1.4105 0 2.648 0.62539 1.2508 0.6121 2.1157 1.7697z"/>
   <path id="path4201" d="m476.17 431.12h3.6193v5.3358h2.1556v3.127h-2.1556v11.35h-3.6193v-11.35h-1.8629v-3.127h1.8629v-5.3358z"/>
   <path id="path4203" d="m483.07 436.46h3.1137v1.823q0.50564-1.0778 1.3439-1.6367 0.8383-0.55886 1.8363-0.55886 0.70524 0 1.477 0.37257l-1.131 3.127q-0.63871-0.31935-1.0512-0.31935-0.8383 0-1.4238 1.0379-0.57217 1.0379-0.57217 4.0717l0.0133 0.70524v5.8548h-3.606v-14.477z"/>
   <path id="path4205" d="m503.35 436.46h3.6193v14.477h-3.6193v-1.5302q-1.0645 1.0113-2.1423 1.4637-1.0645 0.43911-2.3153 0.43911-2.8076 0-4.8568-2.1689-2.0492-2.1822-2.0492-5.4157 0-3.3532 1.9826-5.4955t4.8169-2.1423q1.304 0 2.4484 0.49233 1.1443 0.49234 2.1157 1.477v-1.5968zm-3.8189 2.9806q-1.6899 0-2.8076 1.1976-1.1177 1.1843-1.1177 3.0471 0 1.8762 1.131 3.0871 1.1444 1.2109 2.8076 1.2109 1.7165 0 2.8476-1.1843 1.131-1.1976 1.131-3.127 0-1.8895-1.131-3.0605t-2.8609-1.171z"/>
   <path id="path4207" d="m524.81 439.38-3.0205 1.6633q-0.85161-0.89152-1.6899-1.2375-0.825-0.34597-1.9427-0.34597-2.0359 0-3.3 1.2242-1.2508 1.2109-1.2508 3.1137 0 1.8496 1.2109 3.0205 1.2109 1.171 3.1802 1.171 2.435 0 3.7923-1.6633l2.8609 1.956q-2.3286 3.0205-6.5733 3.0205-3.8189 0-5.9878-2.2621-2.1556-2.2621-2.1556-5.2959 0-2.1024 1.0512-3.8721t2.9274-2.781q1.8895-1.0113 4.2181-1.0113 2.1556 0 3.8721 0.86491 1.7165 0.8516 2.8076 2.435z"/>
   <path id="path4209" d="m529.52 430.49q0.95805 0 1.6367 0.69192 0.69192 0.69193 0.69192 1.6766 0 0.97136-0.67862 1.6633-0.67862 0.67862-1.6234 0.67862-0.97136 0-1.6633-0.69193-0.67862-0.70523-0.67862-1.7032 0-0.95806 0.67862-1.6367 0.67862-0.67862 1.6367-0.67862zm-1.823 5.9612h3.6459v14.477h-3.6459v-14.477z"/>
   <path id="path4211" d="m541.45 436.08q2.0492 0 3.8455 1.0246 1.8096 1.0246 2.8209 2.781t1.0113 3.7923q0 2.0492-1.0246 3.8322-1.0113 1.783-2.7677 2.7943-1.7564 0.99797-3.8721 0.99797-3.1137 0-5.3225-2.2088-2.1955-2.2222-2.1955-5.389 0-3.3931 2.4883-5.6552 2.1822-1.9693 5.0165-1.9693zm0.0532 3.4197q-1.6899 0-2.8209 1.1843-1.1177 1.171-1.1177 3.0072 0 1.8895 1.1044 3.0604 1.1177 1.171 2.8209 1.171t2.8342-1.1843 1.131-3.0471q0-1.8629-1.1177-3.0205-1.1044-1.171-2.8342-1.171zm0.66531-10.911h4.2979l-4.8701 5.2161h-2.608l3.1802-5.2161z"/>
   <path id="path4213" d="m552.1 436.46h3.6193v1.477q1.2375-1.0379 2.2355-1.4371 1.0113-0.41249 2.0625-0.41249 2.1556 0 3.6592 1.5036 1.2641 1.2774 1.2641 3.779v9.5672h-3.5927v-6.3471q0-2.5947-0.23952-3.4463-0.2262-0.85161-0.81168-1.2907-0.57217-0.45241-1.4238-0.45241-1.1044 0-1.9028 0.74515-0.78507 0.73185-1.0911 2.0359-0.15967 0.67862-0.15967 2.9407v5.8149h-3.6193v-14.477z"/>
   <path id="path4215" d="m576.47 431.36h10.685v3.6459h-6.9858v3.5395h6.9858v3.5794h-6.9858v5.1496h6.9858v3.6592h-10.685v-19.574z"/>
   <path id="path4217" d="m599.08 438.48-2.2488 2.2488q-1.3706-1.3572-2.4883-1.3572-0.61209 0-0.95805 0.26612-0.34597 0.25282-0.34597 0.63871 0 0.29274 0.2129 0.54556 0.22621 0.23951 1.0911 0.66531l1.3306 0.66532q2.1024 1.0379 2.8875 2.1157 0.78508 1.0778 0.78508 2.5282 0 1.9294-1.4238 3.2201-1.4105 1.2907-3.7923 1.2907-3.1669 0-5.0564-2.475l2.2355-2.4351q0.6387 0.74515 1.4903 1.2109 0.86491 0.45241 1.5302 0.45241 0.71855 0 1.1576-0.34596 0.43911-0.34597 0.43911-0.79838 0-0.8383-1.5834-1.6367l-1.2242-0.61209q-3.5129-1.7697-3.5129-4.431 0-1.7165 1.3173-2.9274 1.3306-1.2242 3.3931-1.2242 1.4105 0 2.648 0.62539 1.2508 0.6121 2.1157 1.7697z"/>
   <path id="path4219" d="m616.36 439.38-3.0205 1.6633q-0.8516-0.89152-1.6899-1.2375-0.82499-0.34597-1.9427-0.34597-2.0359 0-3.3 1.2242-1.2508 1.2109-1.2508 3.1137 0 1.8496 1.2109 3.0205 1.2109 1.171 3.1802 1.171 2.4351 0 3.7923-1.6633l2.8609 1.956q-2.3286 3.0205-6.5733 3.0205-3.8189 0-5.9878-2.2621-2.1556-2.2621-2.1556-5.2959 0-2.1024 1.0512-3.8721t2.9274-2.781q1.8895-1.0113 4.2181-1.0113 2.1556 0 3.8721 0.86491 1.7165 0.8516 2.8076 2.435z"/>
   <path id="path4221" d="m626.45 436.08q2.0492 0 3.8455 1.0246 1.8097 1.0246 2.8209 2.781 1.0113 1.7564 1.0113 3.7923 0 2.0492-1.0246 3.8322-1.0113 1.783-2.7677 2.7943-1.7564 0.99797-3.8721 0.99797-3.1137 0-5.3225-2.2088-2.1955-2.2222-2.1955-5.389 0-3.3931 2.4883-5.6552 2.1822-1.9693 5.0165-1.9693zm0.0532 3.4197q-1.6899 0-2.8209 1.1843-1.1177 1.171-1.1177 3.0072 0 1.8895 1.1044 3.0604 1.1177 1.171 2.8209 1.171t2.8342-1.1843 1.131-3.0471q0-1.8629-1.1177-3.0205-1.1044-1.171-2.8342-1.171z"/>
   <path id="path4223" d="m636.72 430.87h3.6326v20.066h-3.6326v-20.066z"/>
   <path id="path4225" d="m654.35 436.46h3.6193v14.477h-3.6193v-1.5302q-1.0645 1.0113-2.1423 1.4637-1.0645 0.43911-2.3153 0.43911-2.8076 0-4.8568-2.1689-2.0492-2.1822-2.0492-5.4157 0-3.3532 1.9826-5.4955t4.8169-2.1423q1.304 0 2.4484 0.49233 1.1443 0.49234 2.1157 1.477v-1.5968zm-3.8189 2.9806q-1.6899 0-2.8076 1.1976-1.1177 1.1843-1.1177 3.0471 0 1.8762 1.131 3.0871 1.1444 1.2109 2.8076 1.2109 1.7165 0 2.8476-1.1843 1.131-1.1976 1.131-3.127 0-1.8895-1.131-3.0605t-2.8609-1.171z"/>
   <path id="path4227" d="m660.79 436.46h3.1137v1.823q0.50564-1.0778 1.3439-1.6367 0.8383-0.55886 1.8363-0.55886 0.70523 0 1.477 0.37257l-1.131 3.127q-0.6387-0.31935-1.0512-0.31935-0.8383 0-1.4238 1.0379-0.57217 1.0379-0.57217 4.0717l0.0133 0.70524v5.8548h-3.606v-14.477z"/>
  </g>
  <g id="text3374" transform="matrix(0.375 0 0 0.375 32.797 319.33)">
   <path id="path4247" fill="#fff" d="m326.61 492.54q-1.7431 0-3.2468 0.6254-1.5036 0.6254-2.7544 1.8762t-1.8895 2.781q-0.6387 1.5169-0.6387 3.2467 0 1.7165 0.6387 3.2334 0.6387 1.5036 1.8895 2.7544t2.7544 1.8895q1.5036 0.62539 3.2468 0.62539 1.7564 0 3.26-0.62539 1.5169-0.63871 2.7677-1.8895 1.2375-1.2375 1.8496-2.7411 0.6254-1.5036 0.6254-3.2467 0-1.7697-0.6254-3.2734-0.62539-1.5169-1.8496-2.7544-1.2508-1.2508-2.7677-1.8762-1.5036-0.6254-3.26-0.6254zm0-1.3706q2.0226 0 3.7657 0.73185 1.7564 0.73185 3.2068 2.1822t2.1689 3.1935q0.71854 1.7431 0.71854 3.7923 0 2.0226-0.71854 3.7657-0.71854 1.7298-2.1689 3.1802t-3.2068 2.1822q-1.7431 0.73185-3.7657 0.73185t-3.779-0.73185q-1.7431-0.73185-3.1935-2.1822t-2.1689-3.1802q-0.71854-1.7431-0.71854-3.7657 0-2.0492 0.71854-3.7923t2.1689-3.1935 3.1935-2.1822q1.7564-0.73185 3.779-0.73185zm-0.35928 5.5088h-1.6367v3.6725h1.6367q1.4637 0 2.0359-0.4125 0.58548-0.41249 0.58548-1.4105 0-1.0113-0.58548-1.4238-0.58548-0.4258-2.0359-0.4258zm0.0932-1.3706q2.3419 0 3.4996 0.79837 1.1576 0.78508 1.1576 2.3951 0 1.1443-0.70524 1.8895-0.69192 0.74515-1.9693 0.97136 0.31935 0.10645 0.75846 0.6254 0.45241 0.50564 1.0645 1.477l1.823 2.9673h-2.2887l-1.7165-2.781q-0.78507-1.2774-1.2774-1.6101-0.47902-0.34596-1.1976-0.34596h-0.87821v4.737h-2.0625v-11.124h3.7923z"/>
  </g>
 </g>
</svg>
