<?xml version="1.0" encoding="UTF-8" standalone="no"?>
<!-- Created with Inkscape (http://www.inkscape.org/) -->

<svg
   xmlns:dc="http://purl.org/dc/elements/1.1/"
   xmlns:cc="http://creativecommons.org/ns#"
   xmlns:rdf="http://www.w3.org/1999/02/22-rdf-syntax-ns#"
   xmlns:svg="http://www.w3.org/2000/svg"
   xmlns="http://www.w3.org/2000/svg"
   xmlns:sodipodi="http://sodipodi.sourceforge.net/DTD/sodipodi-0.dtd"
   xmlns:inkscape="http://www.inkscape.org/namespaces/inkscape"
   id="svg3352"
   height="19.716145mm"
   width="30.055573mm"
   version="1.1"
   viewBox="0 0 106.49684 69.86173"
   inkscape:version="0.91 r13725"
   sodipodi:docname="escudo_dgae_solowsg.svg">
  <defs
     id="defs4193" />
  <sodipodi:namedview
     pagecolor="#00ffff"
     bordercolor="#666666"
     borderopacity="1"
     objecttolerance="10"
     gridtolerance="10"
     guidetolerance="10"
     inkscape:pageopacity="0"
     inkscape:pageshadow="2"
     inkscape:window-width="1920"
     inkscape:window-height="1057"
     id="namedview4191"
     showgrid="false"
     showborder="false"
     showguides="true"
     inkscape:guide-bbox="true"
     inkscape:zoom="2.6218227"
     inkscape:cx="116.6226"
     inkscape:cy="39.861114"
     inkscape:window-x="1912"
     inkscape:window-y="-8"
     inkscape:window-maximized="1"
     inkscape:current-layer="layer1"
     fit-margin-top="0"
     fit-margin-left="0"
     fit-margin-right="0"
     fit-margin-bottom="0">
    <sodipodi:guide
       position="-1.1457529,-43.537121"
       orientation="1,0"
       id="guide4797" />
    <sodipodi:guide
       position="98.022565,-63.371044"
       orientation="1,0"
       id="guide4799" />
  </sodipodi:namedview>
  <metadata
     id="metadata3357">
    <rdf:RDF>
      <cc:Work
         rdf:about="">
        <dc:format>image/svg+xml</dc:format>
        <dc:type
           rdf:resource="http://purl.org/dc/dcmitype/StillImage" />
        <dc:title></dc:title>
      </cc:Work>
    </rdf:RDF>
  </metadata>
  <g
     id="layer1"
     transform="translate(-52.476503,-450.93017)"
     style="fill:#ffffff">
    <g
       id="text3360"
       transform="matrix(0.375,0,0,0.375,32.797,319.33)">
      <path
         id="path4230"
         d="m 62.158,352.51 14.137,0 q 13.668,0 20.311,3.4064 6.6425,3.3638 10.943,10.986 4.3006,7.6218 4.3006,17.799 0,7.2386 -2.4271,13.328 -2.3845,6.0464 -6.6425,10.049 -4.2154,4.0025 -9.1547,5.5354 -4.9393,1.5329 -17.117,1.5329 l -14.35,0 0,-62.635 z m 11.88,11.497 0,39.472 5.5354,0 q 8.1754,0 11.837,-1.8735 3.7045,-1.8735 6.0464,-6.3019 2.3419,-4.4283 2.3419,-10.901 0,-9.9638 -5.578,-15.457 -5.0245,-4.9393 -16.138,-4.9393 l -4.0451,0 z"
         inkscape:connector-curvature="0" />
      <path
         id="path4232"
         d="m 183.45,362.73 -8.3883,8.3031 q -7.9625,-8.4309 -18.565,-8.4309 -9.2399,0 -15.499,6.1315 -6.2167,6.1316 -6.2167,14.903 0,9.0696 6.4722,15.371 6.4722,6.3019 15.968,6.3019 6.1741,0 10.39,-2.5974 4.258,-2.5974 6.8554,-8.1328 l -18.139,0 0,-11.199 31.509,0 0.0852,2.64 q 0,8.218 -4.258,15.584 -4.258,7.3664 -11.028,11.241 -6.7702,3.8748 -15.882,3.8748 -9.7509,0 -17.415,-4.2154 -7.6219,-4.258 -12.093,-12.093 -4.4283,-7.8348 -4.4283,-16.904 0,-12.433 8.218,-21.631 9.7509,-10.943 25.378,-10.943 8.1754,0 15.286,3.0232 6.0038,2.5548 11.752,8.7715 z"
         inkscape:connector-curvature="0" />
      <path
         id="path4234"
         d="m 220.3,352.51 12.093,0 24.1,62.635 -12.391,0 -4.8967,-12.902 -25.548,0 -5.1096,12.902 -12.391,0 24.143,-62.635 z m 6.1316,16.606 -8.3457,21.503 16.649,0 -8.3031,-21.503 z"
         inkscape:connector-curvature="0" />
      <path
         id="path4236"
         d="m 268.19,352.51 34.192,0 0,11.667 -22.355,0 0,11.326 22.355,0 0,11.454 -22.355,0 0,16.479 22.355,0 0,11.71 -34.192,0 0,-62.635 z"
         inkscape:connector-curvature="0" />
      <path
         id="path4238"
         d="m 55.614,439.71 11.965,0 0,40.536 q 0,5.2374 0.89418,7.409 0.93676,2.1716 3.0232,3.4916 2.129,1.2774 5.1096,1.2774 3.1509,0 5.4077,-1.4477 2.2993,-1.4477 3.1509,-3.6619 0.89418,-2.2568 0.89418,-8.5586 l 0,-39.046 11.965,0 0,37.343 q 0,9.4528 -1.0645,13.115 -1.0645,3.6619 -4.0877,7.0683 -2.9806,3.4064 -6.898,5.067 -3.9174,1.618 -9.1122,1.618 -6.8128,0 -11.88,-3.1084 -5.0245,-3.1509 -7.1961,-7.8348 -2.1716,-4.7264 -2.1716,-15.925 l 0,-37.343 z"
         inkscape:connector-curvature="0" />
      <path
         id="path4240"
         d="m 111.95,439.71 11.411,0 26.868,41.218 0,-41.218 11.922,0 0,62.635 -11.454,0 -26.826,-41.09 0,41.09 -11.922,0 0,-62.635 z"
         inkscape:connector-curvature="0" />
      <path
         id="path4242"
         d="m 195.53,439.71 12.093,0 24.1,62.635 -12.391,0 -4.8967,-12.902 -25.548,0 -5.1096,12.902 -12.391,0 24.143,-62.635 z m 6.1315,16.606 -8.3457,21.503 16.649,0 -8.3031,-21.503 z"
         inkscape:connector-curvature="0" />
      <path
         id="path4244"
         d="m 247.05,439.71 11.667,0 14.477,43.687 14.69,-43.687 11.497,0 10.56,62.635 -11.497,0 -6.7277,-39.557 -13.328,39.557 -10.517,0 -13.157,-39.557 -6.8554,39.557 -11.624,0 10.815,-62.635 z"
         inkscape:connector-curvature="0" />
    </g>
    <path
       id="rect3366"
       d="m 52.475,478.09 97.943,0 0,2.4283 -97.943,0 z"
       inkscape:connector-curvature="0" />
    <g
       id="text3374"
       transform="matrix(0.375,0,0,0.375,32.797,319.33)">
      <path
         id="path4247"
         d="m 326.61,492.54 q -1.7431,0 -3.2468,0.6254 -1.5036,0.6254 -2.7544,1.8762 -1.2508,1.2508 -1.8895,2.781 -0.6387,1.5169 -0.6387,3.2467 0,1.7165 0.6387,3.2334 0.6387,1.5036 1.8895,2.7544 1.2508,1.2508 2.7544,1.8895 1.5036,0.62539 3.2468,0.62539 1.7564,0 3.26,-0.62539 1.5169,-0.63871 2.7677,-1.8895 1.2375,-1.2375 1.8496,-2.7411 0.6254,-1.5036 0.6254,-3.2467 0,-1.7697 -0.6254,-3.2734 -0.62539,-1.5169 -1.8496,-2.7544 -1.2508,-1.2508 -2.7677,-1.8762 -1.5036,-0.6254 -3.26,-0.6254 z m 0,-1.3706 q 2.0226,0 3.7657,0.73185 1.7564,0.73185 3.2068,2.1822 1.4504,1.45035 2.1689,3.1935 0.71854,1.7431 0.71854,3.7923 0,2.0226 -0.71854,3.7657 -0.71854,1.7298 -2.1689,3.1802 -1.45036,1.4504 -3.2068,2.1822 -1.7431,0.73185 -3.7657,0.73185 -2.0226,0 -3.779,-0.73185 -1.7431,-0.73185 -3.1935,-2.1822 -1.4504,-1.45035 -2.1689,-3.1802 -0.71854,-1.7431 -0.71854,-3.7657 0,-2.0492 0.71854,-3.7923 0.71854,-1.7431 2.1689,-3.1935 1.45036,-1.4504 3.1935,-2.1822 1.7564,-0.73185 3.779,-0.73185 z m -0.35928,5.5088 -1.6367,0 0,3.6725 1.6367,0 q 1.4637,0 2.0359,-0.4125 0.58548,-0.41249 0.58548,-1.4105 0,-1.0113 -0.58548,-1.4238 -0.58548,-0.4258 -2.0359,-0.4258 z m 0.0932,-1.3706 q 2.3419,0 3.4996,0.79837 1.1576,0.78508 1.1576,2.3951 0,1.1443 -0.70524,1.8895 -0.69192,0.74515 -1.9693,0.97136 0.31935,0.10645 0.75846,0.6254 0.45241,0.50564 1.0645,1.477 l 1.823,2.9673 -2.2887,0 -1.7165,-2.781 q -0.78507,-1.2774 -1.2774,-1.6101 -0.47902,-0.34596 -1.1976,-0.34596 l -0.87821,0 0,4.737 -2.0625,0 0,-11.124 3.7923,0 z"
         inkscape:connector-curvature="0"
         style="fill:#ffffff" />
    </g>
  </g>
  <g
     id="g5416"
     transform="translate(-7.6295451e-6,0)">
    <text
       sodipodi:linespacing="125%"
       id="text4793"
       y="69.669777"
       x="0.51620483"
       style="font-style:normal;font-variant:normal;font-weight:bold;font-stretch:normal;font-size:10.62520885px;line-height:125%;font-family:'Century Gothic';-inkscape-font-specification:'Century Gothic, Bold';text-align:start;letter-spacing:0px;word-spacing:0px;writing-mode:lr-tb;text-anchor:start;fill:#ffffff;fill-opacity:1;stroke:none;stroke-width:1px;stroke-linecap:butt;stroke-linejoin:miter;stroke-opacity:1"
       xml:space="preserve"><tspan
         y="69.669777"
         x="0.51620483"
         id="tspan4795"
         sodipodi:role="line">Secretaría General</tspan></text>
  </g>
</svg>
