<?xml version="1.0" encoding="UTF-8" standalone="no"?>
<!-- Created with Inkscape (http://www.inkscape.org/) -->

<svg
   xmlns:dc="http://purl.org/dc/elements/1.1/"
   xmlns:cc="http://creativecommons.org/ns#"
   xmlns:rdf="http://www.w3.org/1999/02/22-rdf-syntax-ns#"
   xmlns:svg="http://www.w3.org/2000/svg"
   xmlns="http://www.w3.org/2000/svg"
   xmlns:sodipodi="http://sodipodi.sourceforge.net/DTD/sodipodi-0.dtd"
   xmlns:inkscape="http://www.inkscape.org/namespaces/inkscape"
   width="30.055834mm"
   height="16.933334mm"
   viewBox="0 0 106.49705 60.000002"
   id="svg3352"
   version="1.1"
   inkscape:version="0.91 r13725"
   sodipodi:docname="escudo_dgae_solow.svg">
  <defs
     id="defs3354" />
  <sodipodi:namedview
     id="base"
     pagecolor="#ffffff"
     bordercolor="#666666"
     borderopacity="1.0"
     inkscape:pageopacity="0.0"
     inkscape:pageshadow="2"
     inkscape:zoom="1.01"
     inkscape:cx="-53.465852"
     inkscape:cy="-117.44971"
     inkscape:document-units="px"
     inkscape:current-layer="layer1"
     showgrid="false"
     inkscape:window-width="1920"
     inkscape:window-height="1057"
     inkscape:window-x="1912"
     inkscape:window-y="-8"
     inkscape:window-maximized="1"
     fit-margin-top="0"
     fit-margin-left="0"
     fit-margin-right="0"
     fit-margin-bottom="0"
     inkscape:showpageshadow="false" />
  <metadata
     id="metadata3357">
    <rdf:RDF>
      <cc:Work
         rdf:about="">
        <dc:format>image/svg+xml</dc:format>
        <dc:type
           rdf:resource="http://purl.org/dc/dcmitype/StillImage" />
        <dc:title></dc:title>
      </cc:Work>
    </rdf:RDF>
  </metadata>
  <g
     inkscape:label="Capa 1"
     inkscape:groupmode="layer"
     id="layer1"
     transform="translate(-52.475243,-450.93089)">
    <g
       style="font-style:normal;font-variant:normal;font-weight:bold;font-stretch:normal;font-size:87.20425415px;line-height:100%;font-family:'Century Gothic';-inkscape-font-specification:'Century Gothic, Bold';text-align:center;letter-spacing:0px;word-spacing:0px;writing-mode:lr-tb;text-anchor:middle;fill:#ffffff;fill-opacity:1;stroke:none;stroke-width:1px;stroke-linecap:butt;stroke-linejoin:miter;stroke-opacity:1"
       id="text3360"
       transform="matrix(0.37499998,0,0,0.37499998,32.797028,319.33182)">
      <path
         d="m 62.157641,352.50634 14.136627,0 q 13.668245,0 20.310757,3.40641 6.642515,3.36384 10.943115,10.9857 4.3006,7.62185 4.3006,17.79852 0,7.23863 -2.42707,13.3276 -2.3845,6.04639 -6.64252,10.04893 -4.215436,4.00254 -9.154739,5.53543 -4.939304,1.53289 -17.117242,1.53289 l -14.349528,0 0,-62.63548 z m 11.879876,11.49665 0,39.47185 5.535427,0 q 8.175399,0 11.837296,-1.87353 3.704478,-1.87353 6.046389,-6.30187 2.341911,-4.42834 2.341911,-10.90053 0,-9.96377 -5.578007,-15.45661 -5.024464,-4.93931 -16.137896,-4.93931 l -4.04512,0 z"
         style="letter-spacing:2.36541557px;fill:#ffffff;fill-opacity:1"
         id="path4230"
         inkscape:connector-curvature="0" />
      <path
         d="m 183.44957,362.72559 -8.3883,8.30314 q -7.9625,-8.43088 -18.56497,-8.43088 -9.23991,0 -15.4992,6.13154 -6.21671,6.13155 -6.21671,14.90308 0,9.06958 6.47219,15.37145 6.4722,6.30187 15.96758,6.30187 6.17413,0 10.38957,-2.59739 4.25802,-2.5974 6.85541,-8.13282 l -18.13916,0 0,-11.1986 31.50935,0 0.0852,2.63998 q 0,8.21798 -4.25802,15.58435 -4.25802,7.36638 -11.02828,11.24117 -6.77025,3.8748 -15.88241,3.8748 -9.75087,0 -17.4153,-4.21544 -7.62186,-4.25802 -12.09278,-12.09277 -4.42834,-7.83476 -4.42834,-16.90435 0,-12.43341 8.21798,-21.63074 9.75086,-10.94311 25.3778,-10.94311 8.1754,0 15.28629,3.02319 6.00381,2.55482 11.75214,8.77153 z"
         style="letter-spacing:2.36541557px;fill:#ffffff;fill-opacity:1"
         id="path4232"
         inkscape:connector-curvature="0" />
      <path
         d="m 220.30494,352.50634 12.09278,0 24.1004,62.63548 -12.39084,0 -4.89673,-12.90181 -25.54812,0 -5.10962,12.90181 -12.39084,0 24.14297,-62.63548 z m 6.13155,16.60628 -8.34572,21.503 16.64886,0 -8.30314,-21.503 z"
         style="letter-spacing:2.36541557px;fill:#ffffff;fill-opacity:1"
         id="path4234"
         inkscape:connector-curvature="0" />
      <path
         d="m 268.1886,352.50634 34.1919,0 0,11.66697 -22.3546,0 0,11.32634 22.3546,0 0,11.45407 -22.3546,0 0,16.47854 22.3546,0 0,11.70956 -34.1919,0 0,-62.63548 z"
         style="letter-spacing:2.36541557px;fill:#ffffff;fill-opacity:1"
         id="path4236"
         inkscape:connector-curvature="0" />
      <path
         d="m 55.614257,439.71059 11.965036,0 0,40.53635 q 0,5.23737 0.894185,7.40896 0.936764,2.17159 3.023194,3.49158 2.12901,1.2774 5.109624,1.2774 3.150935,0 5.407686,-1.44772 2.299331,-1.44773 3.150935,-3.6619 0.894184,-2.25675 0.894184,-8.55862 l 0,-39.04605 11.965037,0 0,37.34284 q 0,9.4528 -1.064505,13.1147 -1.064505,3.6619 -4.0877,7.06832 -2.980614,3.40641 -6.897992,5.06704 -3.917379,1.61805 -9.112164,1.61805 -6.812832,0 -11.879876,-3.10836 -5.024464,-3.15093 -7.196054,-7.83476 -2.17159,-4.7264 -2.17159,-15.92499 l 0,-37.34284 z"
         style="fill:#ffffff;fill-opacity:1"
         id="path4238"
         inkscape:connector-curvature="0" />
      <path
         d="m 111.94787,439.71059 11.41149,0 26.86811,41.21764 0,-41.21764 11.92245,0 0,62.63548 -11.45407,0 -26.82553,-41.0899 0,41.0899 -11.92245,0 0,-62.63548 z"
         style="fill:#ffffff;fill-opacity:1"
         id="path4240"
         inkscape:connector-curvature="0" />
      <path
         d="m 195.53281,439.71059 12.09277,0 24.1004,62.63548 -12.39084,0 -4.89672,-12.9018 -25.54813,0 -5.10962,12.9018 -12.39084,0 24.14298,-62.63548 z m 6.13154,16.60628 -8.34571,21.503 16.64885,0 -8.30314,-21.503 z"
         style="fill:#ffffff;fill-opacity:1"
         id="path4242"
         inkscape:connector-curvature="0" />
      <path
         d="m 247.05486,439.71059 11.66698,0 14.47727,43.68729 14.69017,-43.68729 11.49665,0 10.55989,62.63548 -11.49665,0 -6.72768,-39.55701 -13.3276,39.55701 -10.51731,0 -13.15728,-39.55701 -6.85541,39.55701 -11.6244,0 10.81537,-62.63548 z"
         style="fill:#ffffff;fill-opacity:1"
         id="path4244"
         inkscape:connector-curvature="0" />
    </g>
    <path
       style="fill:#ffffff;fill-opacity:1"
       d="m 52.475243,478.08587 97.942897,0 0,2.42834 -97.942897,0 z"
       id="rect3366"
       inkscape:connector-curvature="0" />
    <g
       style="font-style:normal;font-variant:normal;font-weight:normal;font-stretch:normal;font-size:27.25132942px;line-height:125%;font-family:sans-serif;-inkscape-font-specification:'sans-serif, Normal';text-align:start;letter-spacing:0px;word-spacing:0px;writing-mode:lr-tb;text-anchor:start;fill:#ffffff;fill-opacity:1;stroke:none;stroke-width:1px;stroke-linecap:butt;stroke-linejoin:miter;stroke-opacity:1"
       id="text3374"
       transform="matrix(0.37499998,0,0,0.37499998,32.797028,319.33182)">
      <path
         d="m 326.60742,492.54155 q -1.74313,0 -3.24675,0.6254 -1.50361,0.6254 -2.7544,1.87619 -1.2508,1.25079 -1.8895,2.78102 -0.6387,1.51692 -0.6387,3.24674 0,1.71651 0.6387,3.23343 0.6387,1.50362 1.8895,2.75441 1.25079,1.25079 2.7544,1.8895 1.50362,0.62539 3.24675,0.62539 1.75643,0 3.26004,-0.62539 1.51692,-0.63871 2.76772,-1.8895 1.23748,-1.23749 1.84957,-2.7411 0.6254,-1.50361 0.6254,-3.24674 0,-1.76974 -0.6254,-3.27335 -0.62539,-1.51692 -1.84957,-2.75441 -1.2508,-1.25079 -2.76772,-1.87619 -1.50361,-0.6254 -3.26004,-0.6254 z m 0,-1.37055 q 2.02255,0 3.76568,0.73185 1.75644,0.73185 3.20682,2.18224 1.45039,1.45038 2.16893,3.19351 0.71854,1.74313 0.71854,3.7923 0,2.02256 -0.71854,3.76569 -0.71854,1.72982 -2.16893,3.18021 -1.45038,1.45038 -3.20682,2.18223 -1.74313,0.73185 -3.76568,0.73185 -2.02256,0 -3.779,-0.73185 -1.74312,-0.73185 -3.19351,-2.18223 -1.45039,-1.45039 -2.16893,-3.18021 -0.71854,-1.74313 -0.71854,-3.76569 0,-2.04917 0.71854,-3.7923 0.71854,-1.74313 2.16893,-3.19351 1.45039,-1.45039 3.19351,-2.18224 1.75644,-0.73185 3.779,-0.73185 z m -0.35928,5.50882 -1.63667,0 0,3.67254 1.63667,0 q 1.4637,0 2.03587,-0.4125 0.58548,-0.41249 0.58548,-1.41047 0,-1.01128 -0.58548,-1.42377 -0.58548,-0.4258 -2.03587,-0.4258 z m 0.0932,-1.37055 q 2.34191,0 3.49956,0.79837 1.15765,0.78508 1.15765,2.39514 0,1.14434 -0.70524,1.8895 -0.69192,0.74515 -1.96933,0.97136 0.31935,0.10645 0.75846,0.6254 0.45241,0.50564 1.0645,1.477 l 1.82297,2.9673 -2.28869,0 -1.71651,-2.78102 q -0.78507,-1.2774 -1.27741,-1.61006 -0.47902,-0.34596 -1.19757,-0.34596 l -0.87821,0 0,4.73704 -2.06248,0 0,-11.12407 3.7923,0 z"
         style="fill:#ffffff;fill-opacity:1"
         id="path4247"
         inkscape:connector-curvature="0" />
    </g>
  </g>
</svg>
